<?xml version="1.0" encoding="UTF-8"?>
<svg id="Layer_1" xmlns="http://www.w3.org/2000/svg" xmlns:xlink="http://www.w3.org/1999/xlink" version="1.1" viewBox="0 0 76.755 77.335">
  <!-- Generator: Adobe Illustrator 30.2.1, SVG Export Plug-In . SVG Version: 2.1.1 Build 1)  -->
  <defs>
    <clipPath id="clippath">
      <path d="M73.842,31.435l-4.957-.822c-.697-.117-1.269-.603-1.488-1.269-.525-1.613-1.198-3.195-1.989-4.707-.337-.634-.282-1.394.133-1.981l2.835-3.97c.987-1.386.838-3.266-.368-4.472l-5.646-5.639c-1.206-1.206-3.086-1.363-4.472-.368l-4.213,3.015c-.564.407-1.3.47-1.919.164-1.261-.611-2.569-1.143-3.884-1.574-.666-.219-1.151-.783-1.269-1.488l-.822-4.949c-.282-1.684-1.715-2.898-3.422-2.898h-7.98c-1.707,0-3.14,1.222-3.422,2.898l-.822,4.957c-.117.697-.595,1.269-1.253,1.48-1.472.478-2.929,1.081-4.323,1.793-.619.313-1.363.251-1.934-.157l-4.088-2.921c-1.386-.987-3.266-.838-4.472.368l-5.646,5.646c-1.206,1.206-1.363,3.086-.368,4.472l2.921,4.088c.415.58.47,1.316.157,1.934-.705,1.394-1.308,2.851-1.793,4.323-.211.658-.783,1.143-1.48,1.253l-4.957.822c-1.684.282-2.898,1.715-2.898,3.422v7.98c0,1.707,1.222,3.14,2.898,3.422l4.949.822c.697.117,1.269.603,1.488,1.269.431,1.323.955,2.631,1.574,3.884.298.619.235,1.355-.164,1.919l-3.015,4.213c-.987,1.386-.83,3.266.368,4.472l5.639,5.646c1.206,1.206,3.086,1.363,4.472.368l3.97-2.835c.587-.415,1.339-.47,1.981-.133,1.504.791,3.086,1.457,4.707,1.989.666.219,1.159.791,1.269,1.488l.822,4.957c.282,1.684,1.715,2.898,3.422,2.898h7.98c1.707,0,3.14-1.222,3.422-2.898l.822-4.957c.117-.697.595-1.269,1.261-1.48,1.48-.486,2.937-1.081,4.323-1.793.619-.313,1.363-.251,1.942.157l4.088,2.921c1.386.987,3.266.838,4.472-.368l5.646-5.646c1.206-1.206,1.363-3.086.368-4.472l-2.921-4.088c-.415-.58-.47-1.323-.157-1.942.705-1.386,1.308-2.843,1.793-4.323.211-.658.783-1.143,1.48-1.261l4.957-.822c1.684-.282,2.898-1.715,2.898-3.422v-7.965c-.016-1.707-1.237-3.148-2.913-3.422h0ZM28.146,44.444c.987.846,1.096,2.326.258,3.313-.462.54-1.12.822-1.786.822-.54,0-1.089-.188-1.527-.564l-8.615-7.385c-.525-.446-.822-1.096-.822-1.786s.298-1.339.822-1.786l8.615-7.385c.987-.846,2.467-.728,3.313.258s.728,2.467-.258,3.313l-6.531,5.599,6.531,5.599ZM45.312,23.855l-9.398,31.326c-.305,1.018-1.237,1.676-2.248,1.676-.227,0-.454-.031-.674-.102-1.245-.376-1.95-1.684-1.574-2.929l9.398-31.326c.376-1.245,1.676-1.95,2.929-1.574,1.237.376,1.942,1.692,1.566,2.929h0ZM60.254,40.629l-8.615,7.385c-.446.384-.987.564-1.527.564-.658,0-1.323-.282-1.786-.822-.846-.987-.728-2.467.258-3.313l6.531-5.599-6.531-5.599c-.987-.846-1.096-2.326-.258-3.313.846-.987,2.326-1.096,3.313-.258l8.615,7.385c.525.446.822,1.096.822,1.786s-.298,1.339-.822,1.786h0Z" fill="none"/>
    </clipPath>
  </defs>
  <g clip-path="url(#clippath)">
    <g>
      <polygon points="69.572 15.656 42.181 -.161 36.232 -3.595 30.282 -.161 2.891 15.656 0 17.323 0 59.159 2.891 60.827 30.627 76.841 36.241 80.077 41.856 76.841 69.592 60.827 72.483 59.159 72.483 17.323 69.572 15.656" fill="none"/>
      <rect x=".049" y="-.635" width="76.686" height="77.14" fill="#fff"/>
      <path d="M63.445,76.515h13.311v-8.012l-.01.01-.128.069-.493.296-.493.187-.493.01-.493-.02-.493.01-.493.03-.493.069-.493.128-.493.148-.493.158-.464.207-.03.01-.493.326-.493.385-.493.405-.187.148-.306.197-.493.355-.493.375-.493.266-.493.049-.493-.237-.493-.178-.493-.207-.493-.286-.493-.266-.197-.079-.296-.128-.493-.138-.493-.118-.493-.109-.493-.099-.493-.118-.493-.128-.493-.049-.493-.01-.493-.069-.493-.158-.444-.168-.049-.02-.493-.158-.493-.118-.493-.059-.493.069-.493.197-.148.089-.345.207-.493.385-.493.543-.089.138-.405.73-.237.553-.257.71-.178.572-.296,1.283-.02.118-.168,1.164-.03.306h10.212v.03ZM31.939,76.515h1.411l-.178-.079-.493-.049-.493.069-.247.059ZM28.841,60.837l.385.474.493.405.493.207.493.049.493-.089.493-.187.493-.306.493-.434.118-.128.375-.385.493-.612.207-.286.286-.483.385-.799.109-.316.286-.967.207-.977.049-.296.138-1.283.059-1.283.01-1.283-.039-1.283-.079-1.283-.099-1.283-.049-.947-.02-.335-.039-1.283-.039-1.283-.03-1.283-.039-1.283-.069-1.283-.118-1.283-.148-1.056-.039-.217-.316-1.283-.138-.345-.493-.937h0l-.493-.592-.493-.503-.217-.187-.276-.197-.493-.335-.493-.326-.493-.326-.168-.099-.326-.168-.493-.207-.493-.128-.493-.069-.493-.039-.493-.069-.493-.069-.493-.049-.493-.02-.493-.089-.493-.178-.355-.207-.138-.079-.493-.306-.493-.276-.493-.197-.493-.128-.493-.069-.493-.02-.493.118-.493.286-.493.414-.266.247-.227.247-.493.602-.355.424-.138.227-.493.375-.493.109-.493.02-.493.158-.493.266-.168.138-.326.266-.493.474-.444.543-.049.079-.493,1.006-.069.187-.424,1.204-.02.079-.345,1.283-.118.641-.109.641-.079,1.283.069,1.283.118.927.049.355.257,1.283.178.75.158.533.335,1.006.109.266.385.789.306.493.187.257.493.523.493.355.335.138.158.059.493.148.493.178.493.207.493.207.493.227.493.247h0l.493.266.493.335.493.405.375.276.118.079.493.237.493.148.493.178.493.257.464.375.03.03.493.513.493.622.079.118.414.582.464.691.03.039.493.73.345.513.148.227.493.74.207.316.286.444.493.71.128.197Z" fill="#d53e4f"/>
      <path d="M36.192,80.442l6.473-3.937h3.611l-.276-.286-.01-.02-.483-.691-.335-.592-.158-.306-.375-.977-.118-.335-.276-.947-.217-.858-.109-.424-.345-1.283-.049-.158-.355-1.115-.138-.513-.227-.77-.266-.997-.089-.286-.355-1.283-.059-.257-.227-1.026-.197-1.283-.069-.562-.099-.72-.168-1.283-.138-1.283-.089-1.194-.01-.089-.069-1.283-.089-1.283-.158-1.283-.158-1.085-.03-.197-.197-1.283-.138-1.283v-1.283l.128-1.283.187-1.283.039-.178.266-1.105.227-.631.217-.651.276-.77.158-.513.286-1.283.049-.395.089-.888.02-1.283-.099-1.154-.01-.118-.266-1.283-.217-.779-.148-.503-.345-.799-.217-.483-.276-.464-.493-.779-.03-.039-.464-.622-.493-.622-.03-.039-.464-.513-.493-.523-.247-.247-.247-.227-.493-.405-.493-.355-.464-.286-.03-.02-.493-.217-.493-.138-.493-.089-.493-.069-.493-.099-.493-.178-.493-.276-.276-.207-.217-.197-.493-.582-.306-.503-.187-.345-.395-.937-.099-.227-.385-1.046-.109-.395-.237-.888-.257-.987-.079-.296-.395-1.283-.02-.039-.493-1.036-.109-.207-.385-.483-.493-.543-.276-.257-.217-.148-.493-.286-.493-.217-.493-.138-.493-.069-.493.01-.493.109-.493.207-.493.306-.266.227-.227.276-.493.76-.128.247-.365.858-.158.424-.335.878-.138.405-.355.849-.178.434-.316.572-.405.71-.089.148-.493.868-.148.266-.345.612-.395.661-.099.178-.493.868-.138.227-.355.562-.434.71-.059.089-.493.789-.227.405-.266.405-.493.839-.02.03-.474.839-.227.434-.266.483-.395.789-.099.197-.474,1.076-.02.059-.444,1.224-.049.158-.355,1.125-.138.474-.237.809-.257,1.085-.039.187-.178,1.283-.039,1.283.089,1.283.168,1.283h0l.187,1.283.217,1.283.089.483.158.799.326,1.283.01.03.424,1.253.069.178.493,1.076.01.02.483.819.335.454.158.217.493.562.493.454.069.049.424.345.493.355.493.375.217.197.276.306.493.71.158.266.335.671.296.602.197.474.375.809.118.296.434.987.059.138.493,1.085.03.059.464.868.247.405.247.424.493.799.039.049.454.72.345.562.148.296.375.987.118.414.197.858.187,1.283.089,1.283v1.283l-.059,1.283-.089,1.283-.109,1.283-.03.306h5.397l6.818,4.055ZM49.069,76.515h4.144l.03-.306.168-1.164.02-.118.296-1.283.178-.572.257-.71.237-.553.405-.73.089-.138.493-.543.493-.385.345-.207.148-.089.493-.197.493-.069.493.059.493.118.493.158.049.02.444.168.493.158.493.069.493.01.493.049.493.128.493.118.493.099.493.109.493.118.493.138.296.128.197.079.493.266.493.286.493.207.493.178.493.237.493-.049.493-.266.493-.375.493-.355.306-.197.187-.148.493-.405.493-.385.493-.326.03-.01.464-.207.493-.158.493-.148.493-.128.493-.069.493-.03.493-.01.493.02.493-.01.493-.187.493-.296.128-.069.01-.01v-8.545l-.148.02-.493.079-.493.089-.493.069-.493.069-.493.079-.493.089-.493.069-.493.03-.493-.02-.493-.069-.493-.109-.493-.118-.493-.168-.493-.178-.493-.178-.493-.178-.099-.03-.395-.138-.493-.099h-.493l-.493.079-.483.158v.03s-.493.257-.493.257l-.493.296-.493.306-.493.335-.118.089-.375.286-.493.355-.493.296-.493.227-.365.118-.128.049-.493.168-.493.168-.493.178-.493.197-.493.217-.493.247-.089.049-.405.197-.493.217-.493.197-.493.168-.493.178-.493.178-.424.148-.069.02-.493.197-.493.276-.493.405-.316.375-.178.247-.493.898-.059.128-.434,1.016-.118.276-.375.898-.168.375-.326.839-.178.444-.316.849-.178.434-.316.878-.168.405-.326.928-.158.355-.335.849-.237.434-.158.306ZM29.226,61.32l-.385-.474-.109-.138-.493-.71-.286-.444-.207-.316-.493-.74-.148-.227-.345-.513-.493-.73-.03-.039-.464-.691-.414-.582-.079-.118-.493-.622-.493-.513-.03-.03-.464-.375-.493-.257-.493-.178-.493-.148-.493-.237-.118-.079-.375-.276-.493-.405-.493-.335-.493-.266h0l-.493-.247-.493-.227-.493-.207-.493-.207-.493-.178-.493-.148-.158-.059-.335-.138-.493-.355-.493-.523-.187-.257-.306-.493-.385-.789-.109-.266-.335-1.006-.158-.533-.178-.75-.257-1.283-.049-.355-.118-.927-.069-1.283.079-1.283.109-.641.118-.641.345-1.283.02-.079.424-1.204.069-.187.493-1.006.049-.079.444-.543.493-.474.326-.266.168-.138.493-.266.493-.158.493-.02.493-.109.493-.375.138-.227.355-.424.493-.602.227-.247.266-.247.493-.414.493-.286.493-.118.493.02.493.069.493.128.493.197.493.276.493.306.138.079.355.207.493.178.493.089.493.02.493.049.493.069.493.069.493.039.493.069.493.128.493.207.326.168.168.099.493.326.493.326.493.335.276.197.217.187.493.503.493.592h0l.493.937.138.345.316,1.283.039.217.148,1.056.118,1.283.069,1.283.039,1.283.03,1.283.039,1.283.039,1.283.02.335.049.947.099,1.283.079,1.283.039,1.283-.01,1.283-.059,1.283-.138,1.283-.049.296-.207.977-.286.967-.109.316-.385.799-.286.483-.207.286-.493.612-.375.385-.118.128-.493.434-.493.306-.493.187-.493.089-.493-.049-.493-.207-.513-.464Z" fill="#ec6e45"/>
      <polygon points="17.968 76.515 18.195 76.515 18.372 76.515 18.481 76.515 18.866 76.515 18.974 76.515 19.359 76.515 19.468 76.515 19.852 76.515 19.961 76.515 20.346 76.515 20.454 76.515 20.839 76.515 20.948 76.515 21.332 76.515 21.441 76.515 21.826 76.515 21.944 76.515 22.319 76.515 22.438 76.515 22.813 76.515 22.931 76.515 23.306 76.515 23.424 76.515 23.799 76.515 23.819 76.515 23.997 76.515 24.026 76.21 24.135 74.927 24.223 73.644 24.283 72.361 24.283 71.089 24.184 69.806 23.997 68.523 23.799 67.665 23.681 67.24 23.306 66.254 23.158 65.958 22.813 65.405 22.359 64.685 22.319 64.626 21.826 63.826 21.579 63.402 21.332 62.988 20.869 62.119 20.839 62.06 20.346 60.985 20.287 60.837 19.852 59.86 19.724 59.554 19.359 58.745 19.162 58.281 18.866 57.669 18.53 56.998 18.372 56.732 17.869 56.022 17.603 55.716 17.376 55.518 16.882 55.134 16.389 54.778 15.965 54.433 15.896 54.384 15.402 53.93 14.909 53.377 14.751 53.15 14.416 52.696 13.942 51.878 13.922 51.848 13.429 50.772 13.36 50.595 12.936 49.342 12.926 49.312 12.61 48.029 12.442 47.24 12.353 46.747 12.136 45.474 11.949 44.191 11.949 44.191 11.781 42.908 11.702 41.626 11.732 40.343 11.909 39.07 11.949 38.873 12.205 37.787 12.442 36.978 12.58 36.505 12.936 35.38 12.985 35.222 13.429 33.999 13.459 33.939 13.922 32.864 14.021 32.666 14.416 31.867 14.692 31.384 14.909 30.94 15.393 30.101 15.402 30.071 15.896 29.233 16.162 28.818 16.389 28.424 16.882 27.634 16.952 27.536 17.376 26.825 17.741 26.263 17.869 26.026 18.372 25.158 18.471 24.98 18.866 24.319 19.211 23.697 19.359 23.431 19.852 22.563 19.931 22.415 20.346 21.704 20.661 21.142 20.839 20.698 21.194 19.859 21.332 19.455 21.668 18.576 21.826 18.152 22.191 17.294 22.319 17.057 22.813 16.287 23.03 16.011 23.306 15.784 23.799 15.478 24.293 15.271 24.786 15.162 25.279 15.153 25.773 15.231 26.266 15.36 26.759 15.577 27.253 15.863 27.46 16.011 27.746 16.268 28.239 16.81 28.614 17.294 28.733 17.501 29.226 18.537 29.236 18.576 29.64 19.859 29.719 20.155 29.976 21.142 30.213 22.02 30.321 22.415 30.706 23.47 30.795 23.697 31.199 24.635 31.387 24.98 31.693 25.483 32.186 26.065 32.403 26.263 32.68 26.46 33.173 26.736 33.666 26.924 34.16 27.013 34.653 27.082 35.146 27.171 35.64 27.309 36.133 27.526 36.163 27.536 36.626 27.822 37.12 28.187 37.613 28.591 37.86 28.818 38.106 29.065 38.6 29.588 39.063 30.101 39.093 30.141 39.586 30.762 40.05 31.384 40.08 31.423 40.573 32.203 40.849 32.666 41.066 33.14 41.412 33.939 41.56 34.452 41.777 35.222 42.043 36.505 42.053 36.623 42.162 37.787 42.142 39.07 42.053 39.948 42.004 40.343 41.718 41.626 41.56 42.139 41.284 42.908 41.066 43.56 40.849 44.191 40.573 45.286 40.534 45.474 40.346 46.747 40.218 48.029 40.218 49.312 40.346 50.595 40.544 51.878 40.573 52.065 40.741 53.15 40.899 54.433 40.988 55.716 41.066 56.998 41.066 57.077 41.155 58.281 41.293 59.554 41.471 60.837 41.56 61.557 41.629 62.119 41.826 63.402 42.053 64.418 42.112 64.685 42.468 65.958 42.547 66.244 42.813 67.24 43.04 68.01 43.188 68.523 43.533 69.638 43.583 69.806 43.928 71.089 44.027 71.503 44.244 72.361 44.52 73.309 44.638 73.644 45.013 74.621 45.171 74.927 45.507 75.519 45.99 76.21 46 76.219 46.286 76.515 46.296 76.515 46.493 76.515 46.661 76.515 46.987 76.515 47.125 76.515 47.48 76.515 47.608 76.515 47.983 76.515 48.121 76.515 48.477 76.515 48.773 76.515 48.97 76.515 49.069 76.515 49.226 76.21 49.463 75.775 49.799 74.927 49.957 74.572 50.282 73.644 50.45 73.24 50.766 72.361 50.943 71.937 51.259 71.089 51.437 70.645 51.762 69.806 51.93 69.421 52.305 68.523 52.423 68.247 52.848 67.24 52.917 67.112 53.41 66.214 53.588 65.958 53.903 65.583 54.397 65.178 54.89 64.902 55.383 64.705 55.443 64.685 55.877 64.537 56.37 64.359 56.864 64.182 57.357 64.014 57.85 63.826 58.344 63.6 58.738 63.402 58.837 63.353 59.33 63.106 59.824 62.889 60.317 62.692 60.81 62.504 61.304 62.337 61.797 62.169 61.925 62.119 62.29 62.001 62.784 61.774 63.277 61.478 63.77 61.123 64.145 60.837 64.264 60.748 64.757 60.412 65.25 60.107 65.744 59.82 66.237 59.564 66.257 59.554 66.731 59.396 67.224 59.317 67.717 59.317 68.211 59.426 68.605 59.554 68.704 59.594 69.197 59.771 69.691 59.939 70.184 60.116 70.677 60.284 71.171 60.403 71.664 60.511 72.157 60.58 72.651 60.6 73.144 60.57 73.637 60.501 74.131 60.412 74.624 60.334 75.117 60.255 75.611 60.186 76.104 60.097 76.598 60.018 76.746 59.988 76.746 59.672 76.746 59.554 76.746 58.646 76.746 58.281 76.746 57.373 76.746 56.998 76.746 56.091 76.746 55.716 76.746 54.808 76.746 54.433 76.746 53.525 76.746 53.15 76.746 52.252 76.746 51.878 76.746 50.97 76.746 50.595 76.746 49.687 76.746 49.312 76.746 48.404 76.746 48.029 76.746 47.122 76.746 46.747 76.746 45.849 76.746 45.474 76.746 44.566 76.746 44.191 76.746 43.283 76.746 42.908 76.746 42.001 76.746 41.626 76.746 40.718 76.746 40.343 76.746 39.445 76.746 39.07 76.746 38.162 76.746 37.787 76.746 36.88 76.746 36.505 76.746 35.597 76.746 35.222 76.746 34.314 76.746 33.939 76.746 33.041 76.746 32.666 76.746 31.759 76.746 31.384 76.746 30.476 76.746 30.101 76.746 29.47 76.746 29.104 76.746 28.818 76.746 28.177 76.647 28.818 76.598 29.213 76.499 30.101 76.371 31.384 76.242 32.666 76.104 33.722 76.084 33.939 75.867 35.222 75.611 36.307 75.571 36.505 75.226 37.787 75.117 38.172 74.881 39.07 74.624 40.244 74.604 40.343 74.427 41.626 74.338 42.908 74.328 44.191 74.417 45.474 74.624 46.747 74.624 46.796 74.91 48.029 75.117 48.848 75.275 49.312 75.473 50.595 75.117 51.532 74.96 51.878 74.624 52.183 74.131 52.568 73.637 52.854 73.144 53.032 72.651 53.101 72.157 53.042 71.664 52.844 71.171 52.588 70.677 52.341 70.184 52.075 69.73 51.878 69.691 51.858 69.197 51.69 68.704 51.601 68.211 51.601 67.717 51.67 67.224 51.848 67.165 51.878 66.731 52.075 66.237 52.381 65.744 52.756 65.26 53.15 65.25 53.16 64.757 53.565 64.264 53.999 63.78 54.433 63.77 54.443 63.277 54.877 62.784 55.301 62.29 55.716 62.281 55.716 61.797 56.071 61.304 56.377 60.81 56.673 60.317 56.969 60.268 56.998 59.824 57.245 59.33 57.492 58.837 57.739 58.344 57.995 57.85 58.252 57.811 58.281 57.357 58.498 56.864 58.686 56.37 58.834 55.877 58.952 55.383 59.041 54.89 59.14 54.397 59.258 53.903 59.445 53.716 59.554 53.41 59.751 52.917 60.215 52.463 60.837 52.423 60.906 51.93 61.774 51.762 62.119 51.437 62.751 51.111 63.402 50.943 63.718 50.45 64.626 50.411 64.685 49.957 65.415 49.572 65.958 49.463 66.125 48.97 66.658 48.477 67.004 47.983 67.132 47.48 66.964 46.987 66.491 46.681 65.958 46.493 65.573 46.168 64.685 46 64.201 45.773 63.402 45.507 62.297 45.477 62.119 45.27 60.837 45.151 59.554 45.122 58.281 45.201 56.998 45.398 55.716 45.507 55.104 45.664 54.433 45.97 53.15 46 53.022 46.276 51.878 46.493 50.723 46.523 50.595 46.651 49.312 46.671 48.029 46.592 46.747 46.493 46.046 46.424 45.474 46.227 44.191 46.03 42.908 46 42.76 45.812 41.626 45.625 40.343 45.507 39.228 45.497 39.07 45.418 37.787 45.368 36.505 45.299 35.222 45.23 33.939 45.161 32.666 45.072 31.384 45.013 30.723 44.954 30.101 44.737 28.818 44.52 28.138 44.244 27.536 44.027 27.21 43.533 26.657 43.069 26.263 43.04 26.243 42.547 25.878 42.053 25.513 41.56 25.158 41.323 24.98 41.066 24.793 40.573 24.398 40.08 23.984 39.774 23.697 39.586 23.53 39.093 23.066 38.6 22.602 38.402 22.415 38.106 22.119 37.613 21.645 37.12 21.211 37.021 21.142 36.626 20.806 36.133 20.451 35.64 20.145 35.205 19.859 35.146 19.82 34.653 19.435 34.16 18.971 33.844 18.576 33.666 18.33 33.173 17.422 33.114 17.294 32.68 16.287 32.571 16.011 32.186 15.192 31.969 14.738 31.693 14.294 31.199 13.584 31.101 13.455 30.706 12.972 30.213 12.439 29.907 12.173 29.719 12.015 29.226 11.66 28.733 11.373 28.239 11.127 27.746 10.91 27.687 10.89 27.253 10.732 26.759 10.584 26.266 10.466 25.773 10.397 25.279 10.357 24.786 10.367 24.293 10.426 23.799 10.515 23.306 10.633 22.813 10.772 22.507 10.89 22.319 10.969 21.826 11.245 21.332 11.6 20.839 12.044 20.721 12.173 20.346 12.617 19.852 13.258 19.714 13.455 19.359 14.077 18.994 14.738 18.866 15.044 18.441 16.011 18.372 16.218 18.007 17.294 17.869 17.748 17.632 18.576 17.376 19.464 17.267 19.859 16.882 20.964 16.823 21.142 16.389 22.168 16.3 22.415 15.896 23.362 15.767 23.697 15.402 24.546 15.235 24.98 14.909 25.819 14.761 26.263 14.416 27.269 14.337 27.536 13.922 28.68 13.873 28.818 13.429 29.933 13.37 30.101 12.936 31.068 12.797 31.384 12.442 32.163 12.215 32.666 11.949 33.298 11.673 33.939 11.456 34.492 11.189 35.222 10.962 35.923 10.785 36.505 10.469 37.768 10.469 37.787 10.262 39.07 10.173 40.343 10.193 41.626 10.301 42.908 10.469 44.191 10.469 44.191 10.656 45.474 10.854 46.747 10.962 47.437 11.061 48.029 11.278 49.312 11.456 50.269 11.525 50.595 11.821 51.878 11.949 52.371 12.186 53.15 12.442 53.9 12.659 54.433 12.936 55.094 13.242 55.716 13.429 56.11 13.922 56.998 13.922 57.008 14.416 57.906 14.652 58.281 14.909 58.775 15.363 59.554 15.402 59.643 15.896 60.6 16.024 60.837 16.389 61.675 16.577 62.119 16.882 63.037 17.001 63.402 17.366 64.685 17.376 64.744 17.682 65.958 17.869 66.875 17.958 67.24 18.214 68.523 18.372 69.293 18.471 69.806 18.698 71.089 18.826 72.361 18.816 73.644 18.599 74.927 18.372 75.647 18.145 76.21 17.968 76.515" fill="#f6ac63"/>
      <polygon points="8.081 76.515 8.259 76.515 8.495 76.515 8.614 76.515 8.989 76.515 9.107 76.515 9.482 76.515 9.601 76.515 9.976 76.515 10.094 76.515 10.469 76.515 10.587 76.515 10.962 76.515 11.081 76.515 11.456 76.515 11.574 76.515 11.949 76.515 12.067 76.515 12.442 76.515 12.561 76.515 12.936 76.515 13.054 76.515 13.429 76.515 13.547 76.515 13.922 76.515 14.041 76.515 14.416 76.515 14.534 76.515 14.909 76.515 15.027 76.515 15.402 76.515 15.521 76.515 15.896 76.515 16.014 76.515 16.389 76.515 16.507 76.515 16.882 76.515 16.991 76.515 17.366 76.515 17.376 76.515 17.692 76.515 17.869 76.515 17.968 76.515 18.145 76.21 18.372 75.647 18.599 74.927 18.816 73.644 18.826 72.361 18.698 71.089 18.471 69.806 18.372 69.293 18.214 68.523 17.958 67.24 17.869 66.875 17.682 65.958 17.376 64.744 17.366 64.685 17.001 63.402 16.882 63.037 16.577 62.119 16.389 61.675 16.024 60.837 15.896 60.6 15.402 59.643 15.363 59.554 14.909 58.775 14.652 58.281 14.416 57.906 13.922 57.008 13.922 56.998 13.429 56.11 13.242 55.716 12.936 55.094 12.659 54.433 12.442 53.9 12.186 53.15 11.949 52.371 11.821 51.878 11.525 50.595 11.456 50.269 11.278 49.312 11.061 48.029 10.962 47.437 10.854 46.747 10.656 45.474 10.469 44.191 10.469 44.191 10.301 42.908 10.193 41.626 10.173 40.343 10.262 39.07 10.469 37.787 10.469 37.768 10.785 36.505 10.962 35.923 11.189 35.222 11.456 34.492 11.673 33.939 11.949 33.298 12.215 32.666 12.442 32.163 12.797 31.384 12.936 31.068 13.37 30.101 13.429 29.933 13.873 28.818 13.922 28.68 14.337 27.536 14.416 27.269 14.761 26.263 14.909 25.819 15.235 24.98 15.402 24.546 15.767 23.697 15.896 23.362 16.3 22.415 16.389 22.168 16.823 21.142 16.882 20.964 17.267 19.859 17.376 19.464 17.632 18.576 17.869 17.748 18.007 17.294 18.372 16.218 18.441 16.011 18.866 15.044 18.994 14.738 19.359 14.077 19.714 13.455 19.852 13.258 20.346 12.617 20.721 12.173 20.839 12.044 21.332 11.6 21.826 11.245 22.319 10.969 22.507 10.89 22.813 10.772 23.306 10.633 23.799 10.515 24.293 10.426 24.786 10.367 25.279 10.357 25.773 10.397 26.266 10.466 26.759 10.584 27.253 10.732 27.687 10.89 27.746 10.91 28.239 11.127 28.733 11.373 29.226 11.66 29.719 12.015 29.907 12.173 30.213 12.439 30.706 12.972 31.101 13.455 31.199 13.584 31.693 14.294 31.969 14.738 32.186 15.192 32.571 16.011 32.68 16.287 33.114 17.294 33.173 17.422 33.666 18.33 33.844 18.576 34.16 18.971 34.653 19.435 35.146 19.82 35.205 19.859 35.64 20.145 36.133 20.451 36.626 20.806 37.021 21.142 37.12 21.211 37.613 21.645 38.106 22.119 38.402 22.415 38.6 22.602 39.093 23.066 39.586 23.53 39.774 23.697 40.08 23.984 40.573 24.398 41.066 24.793 41.323 24.98 41.56 25.158 42.053 25.513 42.547 25.878 43.04 26.243 43.069 26.263 43.533 26.657 44.027 27.21 44.244 27.536 44.52 28.138 44.737 28.818 44.954 30.101 45.013 30.723 45.072 31.384 45.161 32.666 45.23 33.939 45.299 35.222 45.368 36.505 45.418 37.787 45.497 39.07 45.507 39.228 45.625 40.343 45.812 41.626 46 42.76 46.03 42.908 46.227 44.191 46.424 45.474 46.493 46.046 46.592 46.747 46.671 48.029 46.651 49.312 46.523 50.595 46.493 50.723 46.276 51.878 46 53.022 45.97 53.15 45.664 54.433 45.507 55.104 45.398 55.716 45.201 56.998 45.122 58.281 45.151 59.554 45.27 60.837 45.477 62.119 45.507 62.297 45.773 63.402 46 64.201 46.168 64.685 46.493 65.573 46.681 65.958 46.987 66.491 47.48 66.964 47.983 67.132 48.477 67.004 48.97 66.658 49.463 66.125 49.572 65.958 49.957 65.415 50.411 64.685 50.45 64.626 50.943 63.718 51.111 63.402 51.437 62.751 51.762 62.119 51.93 61.774 52.423 60.906 52.463 60.837 52.917 60.215 53.41 59.751 53.716 59.554 53.903 59.445 54.397 59.258 54.89 59.14 55.383 59.041 55.877 58.952 56.37 58.834 56.864 58.686 57.357 58.498 57.811 58.281 57.85 58.252 58.344 57.995 58.837 57.739 59.33 57.492 59.824 57.245 60.268 56.998 60.317 56.969 60.81 56.673 61.304 56.377 61.797 56.071 62.281 55.716 62.29 55.716 62.784 55.301 63.277 54.877 63.77 54.443 63.78 54.433 64.264 53.999 64.757 53.565 65.25 53.16 65.26 53.15 65.744 52.756 66.237 52.381 66.731 52.075 67.165 51.878 67.224 51.848 67.717 51.67 68.211 51.601 68.704 51.601 69.197 51.69 69.691 51.858 69.73 51.878 70.184 52.075 70.677 52.341 71.171 52.588 71.664 52.844 72.157 53.042 72.651 53.101 73.144 53.032 73.637 52.854 74.131 52.568 74.624 52.183 74.96 51.878 75.117 51.532 75.473 50.595 75.275 49.312 75.117 48.848 74.91 48.029 74.624 46.796 74.624 46.747 74.417 45.474 74.328 44.191 74.338 42.908 74.427 41.626 74.604 40.343 74.624 40.244 74.881 39.07 75.117 38.172 75.226 37.787 75.571 36.505 75.611 36.307 75.867 35.222 76.084 33.939 76.104 33.722 76.242 32.666 76.371 31.384 76.499 30.101 76.598 29.213 76.647 28.818 76.746 28.177 76.746 27.536 76.746 27.023 76.746 26.263 76.746 25.375 76.746 24.98 76.746 24.072 76.746 23.697 76.746 22.79 76.746 22.415 76.746 21.507 76.746 21.142 76.746 20.234 76.746 19.859 76.746 18.951 76.746 18.576 76.746 17.669 76.746 17.294 76.746 16.386 76.746 16.011 76.746 15.103 76.746 14.738 76.746 14.452 76.746 14.008 76.598 14.343 76.43 14.738 76.104 15.518 75.907 16.011 75.611 16.741 75.394 17.294 75.117 17.974 74.881 18.576 74.624 19.237 74.387 19.859 74.131 20.579 73.943 21.142 73.637 22.069 73.529 22.415 73.154 23.697 73.144 23.737 72.828 24.98 72.651 25.769 72.532 26.263 72.217 27.536 72.157 27.733 71.802 28.818 71.664 29.193 71.279 30.101 71.171 30.328 70.677 31.177 70.519 31.384 70.184 31.788 69.691 32.252 69.197 32.627 69.148 32.666 68.704 32.982 68.211 33.347 67.717 33.752 67.53 33.939 67.224 34.304 66.731 35.094 66.671 35.222 66.237 36.298 66.168 36.505 65.842 37.787 65.744 38.33 65.616 39.07 65.418 40.343 65.25 41.31 65.191 41.626 64.876 42.908 64.757 43.264 64.422 44.191 64.264 44.507 63.77 45.454 63.761 45.474 63.277 46.204 62.902 46.747 62.784 46.905 62.29 47.516 61.876 48.029 61.797 48.118 61.304 48.631 60.81 49.125 60.613 49.312 60.317 49.559 59.824 49.944 59.33 50.279 58.837 50.526 58.62 50.595 58.344 50.664 57.85 50.723 57.357 50.733 56.864 50.723 56.37 50.684 55.966 50.595 55.877 50.575 55.383 50.319 54.89 49.983 54.397 49.677 53.903 49.381 53.815 49.312 53.41 48.898 52.917 48.069 52.897 48.029 52.492 46.747 52.423 46.451 52.206 45.474 51.999 44.191 51.93 43.648 51.831 42.908 51.476 41.626 51.437 41.557 50.943 40.688 50.736 40.343 50.45 39.899 49.957 39.139 49.907 39.07 49.463 37.975 49.394 37.787 49.197 36.505 49.078 35.222 48.97 34.245 48.93 33.939 48.822 32.666 48.773 31.384 48.832 30.101 48.93 28.818 48.97 27.733 48.97 27.536 48.97 27.476 48.842 26.263 48.556 24.98 48.477 24.664 48.22 23.697 47.983 22.79 47.875 22.415 47.49 21.142 47.48 21.122 46.987 19.968 46.927 19.859 46.493 19.168 46.03 18.576 46 18.547 45.507 18.103 45.013 17.748 44.52 17.471 44.086 17.294 44.027 17.274 43.533 17.116 43.04 16.958 42.547 16.781 42.053 16.564 41.56 16.268 41.254 16.011 41.066 15.853 40.573 15.34 40.08 14.758 40.06 14.738 39.586 14.166 39.093 13.594 38.955 13.455 38.6 13.09 38.106 12.636 37.613 12.222 37.544 12.173 37.12 11.867 36.626 11.551 36.133 11.235 35.64 10.89 35.64 10.89 35.146 10.525 34.653 10.101 34.16 9.617 34.16 9.607 33.666 9.104 33.173 8.581 32.936 8.334 32.68 8.078 32.186 7.614 31.693 7.21 31.466 7.052 31.199 6.874 30.706 6.598 30.213 6.391 29.719 6.243 29.226 6.144 28.733 6.075 28.239 6.035 27.746 6.035 27.253 6.065 26.759 6.114 26.266 6.174 25.773 6.243 25.279 6.322 24.786 6.42 24.293 6.539 23.799 6.667 23.306 6.815 22.813 6.983 22.635 7.052 22.319 7.18 21.826 7.417 21.332 7.703 20.839 8.048 20.464 8.334 20.346 8.433 19.852 8.877 19.359 9.38 19.152 9.607 18.866 9.982 18.372 10.683 18.234 10.89 17.869 11.472 17.435 12.173 17.376 12.271 16.882 13.12 16.695 13.455 16.389 14.028 16.034 14.738 15.896 15.074 15.521 16.011 15.402 16.376 15.116 17.294 14.909 18.004 14.751 18.576 14.416 19.721 14.386 19.859 14.001 21.142 13.922 21.388 13.626 22.415 13.429 23.066 13.251 23.697 12.936 24.783 12.886 24.98 12.571 26.263 12.442 26.776 12.255 27.536 11.949 28.552 11.87 28.818 11.456 29.983 11.416 30.101 10.962 31.216 10.893 31.384 10.469 32.321 10.311 32.666 9.976 33.387 9.739 33.939 9.482 34.64 9.295 35.222 8.989 36.347 8.959 36.505 8.762 37.787 8.683 39.07 8.673 40.343 8.703 41.626 8.752 42.908 8.821 44.191 8.93 45.474 8.989 46.046 9.068 46.747 9.255 48.029 9.423 49.312 9.482 49.904 9.551 50.595 9.65 51.878 9.808 53.15 9.976 54.117 10.035 54.433 10.281 55.716 10.469 56.653 10.548 56.998 10.854 58.281 10.962 58.735 11.189 59.554 11.456 60.58 11.535 60.837 11.87 62.119 11.949 62.504 12.146 63.402 12.353 64.685 12.442 65.869 12.452 65.958 12.442 67.24 12.442 67.27 12.324 68.523 11.988 69.806 11.949 69.895 11.456 70.615 10.962 71.01 10.864 71.089 10.469 71.325 9.976 71.819 9.67 72.361 9.482 72.667 9.127 73.644 8.989 73.94 8.643 74.927 8.495 75.312 8.19 76.21 8.081 76.515" fill="#ffe08a"/>
      <polygon points=".039 76.21 .039 76.515 .109 76.515 .227 76.515 .602 76.515 .72 76.515 1.095 76.515 1.214 76.515 1.589 76.515 1.707 76.515 2.082 76.515 2.2 76.515 2.575 76.515 2.694 76.515 3.069 76.515 3.187 76.515 3.562 76.515 3.68 76.515 4.055 76.515 4.174 76.515 4.549 76.515 4.667 76.515 5.042 76.515 5.16 76.515 5.535 76.515 5.654 76.515 6.029 76.515 6.147 76.515 6.522 76.515 6.64 76.515 7.015 76.515 7.134 76.515 7.509 76.515 7.568 76.515 7.943 76.515 8.002 76.515 8.081 76.515 8.19 76.21 8.495 75.312 8.643 74.927 8.989 73.94 9.127 73.644 9.482 72.667 9.67 72.361 9.976 71.819 10.469 71.325 10.864 71.089 10.962 71.01 11.456 70.615 11.949 69.895 11.988 69.806 12.324 68.523 12.442 67.27 12.442 67.24 12.452 65.958 12.442 65.869 12.353 64.685 12.146 63.402 11.949 62.504 11.87 62.119 11.535 60.837 11.456 60.58 11.189 59.554 10.962 58.735 10.854 58.281 10.548 56.998 10.469 56.653 10.281 55.716 10.035 54.433 9.976 54.117 9.808 53.15 9.65 51.878 9.551 50.595 9.482 49.904 9.423 49.312 9.255 48.029 9.068 46.747 8.989 46.046 8.93 45.474 8.821 44.191 8.752 42.908 8.703 41.626 8.673 40.343 8.683 39.07 8.762 37.787 8.959 36.505 8.989 36.347 9.295 35.222 9.482 34.64 9.739 33.939 9.976 33.387 10.311 32.666 10.469 32.321 10.893 31.384 10.962 31.216 11.416 30.101 11.456 29.983 11.87 28.818 11.949 28.552 12.255 27.536 12.442 26.776 12.571 26.263 12.886 24.98 12.936 24.783 13.251 23.697 13.429 23.066 13.626 22.415 13.922 21.388 14.001 21.142 14.386 19.859 14.416 19.721 14.751 18.576 14.909 18.004 15.116 17.294 15.402 16.376 15.521 16.011 15.896 15.074 16.034 14.738 16.389 14.028 16.695 13.455 16.882 13.12 17.376 12.271 17.435 12.173 17.869 11.472 18.234 10.89 18.372 10.683 18.866 9.982 19.152 9.607 19.359 9.38 19.852 8.877 20.346 8.433 20.464 8.334 20.839 8.048 21.332 7.703 21.826 7.417 22.319 7.18 22.635 7.052 22.813 6.983 23.306 6.815 23.799 6.667 24.293 6.539 24.786 6.42 25.279 6.322 25.773 6.243 26.266 6.174 26.759 6.114 27.253 6.065 27.746 6.035 28.239 6.035 28.733 6.075 29.226 6.144 29.719 6.243 30.213 6.391 30.706 6.598 31.199 6.874 31.466 7.052 31.693 7.21 32.186 7.614 32.68 8.078 32.936 8.334 33.173 8.581 33.666 9.104 34.16 9.607 34.16 9.617 34.653 10.101 35.146 10.525 35.64 10.89 35.64 10.89 36.133 11.235 36.626 11.551 37.12 11.867 37.544 12.173 37.613 12.222 38.106 12.636 38.6 13.09 38.955 13.455 39.093 13.594 39.586 14.166 40.06 14.738 40.08 14.758 40.573 15.34 41.066 15.853 41.254 16.011 41.56 16.268 42.053 16.564 42.547 16.781 43.04 16.958 43.533 17.116 44.027 17.274 44.086 17.294 44.52 17.471 45.013 17.748 45.507 18.103 46 18.547 46.03 18.576 46.493 19.168 46.927 19.859 46.987 19.968 47.48 21.122 47.49 21.142 47.875 22.415 47.983 22.79 48.22 23.697 48.477 24.664 48.556 24.98 48.842 26.263 48.97 27.476 48.97 27.536 48.97 27.733 48.93 28.818 48.832 30.101 48.773 31.384 48.822 32.666 48.93 33.939 48.97 34.245 49.078 35.222 49.197 36.505 49.394 37.787 49.463 37.975 49.907 39.07 49.957 39.139 50.45 39.899 50.736 40.343 50.943 40.688 51.437 41.557 51.476 41.626 51.831 42.908 51.93 43.648 51.999 44.191 52.206 45.474 52.423 46.451 52.492 46.747 52.897 48.029 52.917 48.069 53.41 48.898 53.815 49.312 53.903 49.381 54.397 49.677 54.89 49.983 55.383 50.319 55.877 50.575 55.966 50.595 56.37 50.684 56.864 50.723 57.357 50.733 57.85 50.723 58.344 50.664 58.62 50.595 58.837 50.526 59.33 50.279 59.824 49.944 60.317 49.559 60.613 49.312 60.81 49.125 61.304 48.631 61.797 48.118 61.876 48.029 62.29 47.516 62.784 46.905 62.902 46.747 63.277 46.204 63.761 45.474 63.77 45.454 64.264 44.507 64.422 44.191 64.757 43.264 64.876 42.908 65.191 41.626 65.25 41.31 65.418 40.343 65.616 39.07 65.744 38.33 65.842 37.787 66.168 36.505 66.237 36.298 66.671 35.222 66.731 35.094 67.224 34.304 67.53 33.939 67.717 33.752 68.211 33.347 68.704 32.982 69.148 32.666 69.197 32.627 69.691 32.252 70.184 31.788 70.519 31.384 70.677 31.177 71.171 30.328 71.279 30.101 71.664 29.193 71.802 28.818 72.157 27.733 72.217 27.536 72.532 26.263 72.651 25.769 72.828 24.98 73.144 23.737 73.154 23.697 73.529 22.415 73.637 22.069 73.943 21.142 74.131 20.579 74.387 19.859 74.624 19.237 74.881 18.576 75.117 17.974 75.394 17.294 75.611 16.741 75.907 16.011 76.104 15.518 76.43 14.738 76.598 14.343 76.746 14.008 76.746 13.455 76.746 12.646 76.746 12.173 76.746 11.265 76.746 10.89 76.746 9.982 76.746 9.607 76.746 8.7 76.746 8.334 76.746 7.427 76.746 7.052 76.746 6.144 76.746 5.769 76.746 4.861 76.746 4.486 76.746 4.447 76.746 4.111 76.598 4.427 76.578 4.486 76.104 5.443 75.956 5.769 75.611 6.43 75.305 7.052 75.117 7.397 74.634 8.334 74.624 8.354 74.131 9.292 73.963 9.607 73.637 10.239 73.302 10.89 73.144 11.186 72.651 12.133 72.641 12.173 72.157 13.071 71.95 13.455 71.664 13.978 71.25 14.738 71.171 14.876 70.677 15.804 70.559 16.011 70.184 16.731 69.878 17.294 69.691 17.669 69.197 18.547 69.178 18.576 68.704 19.366 68.359 19.859 68.211 20.047 67.717 20.599 67.224 21.053 67.105 21.142 66.731 21.398 66.237 21.694 65.744 21.951 65.25 22.178 64.757 22.375 64.609 22.415 64.264 22.523 63.77 22.622 63.277 22.661 62.784 22.632 62.29 22.533 61.915 22.415 61.797 22.385 61.304 22.198 60.81 21.981 60.317 21.704 59.824 21.369 59.547 21.142 59.33 20.954 58.837 20.461 58.344 19.889 58.314 19.859 57.85 19.237 57.406 18.576 57.357 18.497 56.864 17.649 56.666 17.294 56.37 16.712 56.025 16.011 55.877 15.705 55.393 14.738 55.383 14.699 54.89 13.791 54.693 13.455 54.397 12.992 53.903 12.311 53.795 12.173 53.41 11.748 52.917 11.304 52.423 11.028 51.93 10.89 51.437 10.91 50.943 10.939 50.45 10.929 50.262 10.89 49.957 10.841 49.463 10.703 48.97 10.515 48.477 10.278 47.983 9.992 47.48 9.676 47.401 9.607 46.987 9.311 46.493 8.946 46 8.601 45.615 8.334 45.507 8.256 45.013 7.91 44.52 7.585 44.027 7.269 43.661 7.052 43.533 6.973 43.04 6.657 42.547 6.322 42.053 5.966 41.806 5.769 41.56 5.582 41.066 5.216 40.573 4.881 40.08 4.575 39.932 4.486 39.586 4.299 39.093 4.072 38.6 3.904 38.106 3.776 37.613 3.697 37.12 3.628 36.626 3.569 36.133 3.5 35.64 3.401 35.146 3.253 35.038 3.204 34.653 3.046 34.16 2.799 33.666 2.513 33.173 2.247 32.68 1.98 32.581 1.931 32.186 1.714 31.693 1.467 31.199 1.25 30.706 1.062 30.213 .914 29.719 .816 29.226 .757 28.733 .737 28.239 .776 27.746 .865 27.253 1.013 26.759 1.21 26.266 1.457 25.773 1.724 25.417 1.931 25.279 2 24.786 2.256 24.293 2.523 23.799 2.779 23.306 3.046 23.01 3.204 22.813 3.302 22.319 3.549 21.826 3.805 21.332 4.101 20.839 4.437 20.77 4.486 20.346 4.812 19.852 5.226 19.359 5.69 19.28 5.769 18.866 6.193 18.372 6.736 18.106 7.052 17.869 7.318 17.376 7.94 17.08 8.334 16.882 8.601 16.389 9.301 16.182 9.607 15.896 10.051 15.402 10.841 15.383 10.89 14.909 11.689 14.643 12.173 14.416 12.607 14.011 13.455 13.922 13.663 13.508 14.738 13.429 14.975 13.113 16.011 12.936 16.652 12.768 17.294 12.442 18.497 12.423 18.576 12.067 19.859 11.949 20.264 11.722 21.142 11.456 22.198 11.406 22.415 11.11 23.697 10.962 24.319 10.814 24.98 10.528 26.263 10.469 26.47 10.183 27.536 9.976 28.187 9.778 28.818 9.482 29.588 9.305 30.101 8.989 30.89 8.821 31.384 8.495 32.361 8.407 32.666 8.042 33.939 8.002 34.107 7.765 35.222 7.578 36.505 7.509 37.274 7.469 37.787 7.44 39.07 7.44 40.343 7.39 41.626 7.252 42.908 7.035 44.191 7.015 44.319 6.838 45.474 6.542 46.747 6.522 46.806 6.118 48.029 6.029 48.256 5.535 49.174 5.447 49.312 5.042 49.865 4.549 50.536 4.509 50.595 4.055 51.621 3.967 51.878 4.016 53.15 4.055 53.298 4.47 54.433 4.549 54.729 4.855 55.716 4.943 56.998 4.983 58.281 4.973 59.554 4.933 60.837 4.864 62.119 4.825 63.402 4.805 64.685 4.805 65.958 4.795 67.24 4.756 68.523 4.647 69.806 4.549 70.477 4.44 71.089 4.085 72.361 4.055 72.44 3.562 73.2 3.098 73.644 3.069 73.674 2.575 73.92 2.082 74.049 1.589 74.118 1.095 74.128 .602 74.039 .109 73.743 .039 73.674 .039 73.97 .039 74.749 .039 74.927 .039 76.032 .039 76.21" fill="#fbf5c0"/>
      <polygon points="43.04 -.635 43.533 -.635 44.027 -.635 44.52 -.635 45.013 -.635 45.507 -.635 46 -.635 46.493 -.635 46.987 -.635 47.48 -.635 47.983 -.635 48.477 -.635 48.97 -.635 49.463 -.635 49.957 -.635 50.45 -.635 50.943 -.635 51.437 -.635 51.93 -.635 52.423 -.635 52.917 -.635 53.41 -.635 53.903 -.635 54.397 -.635 54.89 -.635 55.383 -.635 55.877 -.635 56.36 -.635 56.37 -.625 56.864 .273 57.061 .648 57.357 1.25 57.682 1.931 57.85 2.256 58.314 3.204 58.344 3.263 58.837 4.358 58.896 4.486 59.33 5.473 59.468 5.769 59.824 6.539 60.08 7.052 60.317 7.496 60.81 8.334 60.81 8.334 61.304 9.015 61.797 9.568 61.846 9.607 62.29 9.972 62.784 10.268 63.277 10.466 63.77 10.564 64.264 10.614 64.757 10.574 65.25 10.485 65.744 10.337 66.237 10.101 66.731 9.805 66.987 9.607 67.224 9.42 67.717 8.946 68.211 8.413 68.28 8.334 68.704 7.782 69.197 7.121 69.247 7.052 69.691 6.361 70.066 5.769 70.184 5.552 70.677 4.644 70.766 4.486 71.171 3.608 71.358 3.204 71.664 2.395 71.842 1.931 72.157 .786 72.197 .648 72.453 -.635 72.651 -.635 73.144 -.635 73.637 -.635 74.131 -.635 74.624 -.635 75.117 -.635 75.611 -.635 76.104 -.635 76.598 -.635 76.746 -.635 76.746 -.26 76.746 .648 76.746 1.023 76.746 1.931 76.746 2.296 76.746 3.204 76.746 3.243 76.746 4.111 76.598 4.427 76.578 4.486 76.104 5.443 75.956 5.769 75.611 6.43 75.305 7.052 75.117 7.397 74.634 8.334 74.624 8.354 74.131 9.292 73.963 9.607 73.637 10.239 73.302 10.89 73.144 11.186 72.651 12.133 72.641 12.173 72.157 13.071 71.95 13.455 71.664 13.978 71.25 14.738 71.171 14.876 70.677 15.804 70.559 16.011 70.184 16.731 69.878 17.294 69.691 17.669 69.197 18.547 69.178 18.576 68.704 19.366 68.359 19.859 68.211 20.047 67.717 20.599 67.224 21.053 67.105 21.142 66.731 21.398 66.237 21.694 65.744 21.951 65.25 22.178 64.757 22.375 64.609 22.415 64.264 22.523 63.77 22.622 63.277 22.661 62.784 22.632 62.29 22.533 61.915 22.415 61.797 22.385 61.304 22.198 60.81 21.981 60.317 21.704 59.824 21.369 59.547 21.142 59.33 20.954 58.837 20.461 58.344 19.889 58.314 19.859 57.85 19.237 57.406 18.576 57.357 18.497 56.864 17.649 56.666 17.294 56.37 16.712 56.025 16.011 55.877 15.705 55.393 14.738 55.383 14.699 54.89 13.791 54.693 13.455 54.397 12.992 53.903 12.311 53.795 12.173 53.41 11.748 52.917 11.304 52.423 11.028 51.93 10.89 51.437 10.91 50.943 10.939 50.45 10.929 50.262 10.89 49.957 10.841 49.463 10.703 48.97 10.515 48.477 10.278 47.983 9.992 47.48 9.676 47.401 9.607 46.987 9.311 46.493 8.946 46 8.601 45.615 8.334 45.507 8.256 45.013 7.91 44.52 7.585 44.027 7.269 43.661 7.052 43.533 6.973 43.04 6.657 42.547 6.322 42.053 5.966 41.806 5.769 41.56 5.582 41.066 5.216 40.573 4.881 40.08 4.575 39.932 4.486 39.586 4.299 39.093 4.072 38.6 3.904 38.106 3.776 37.613 3.697 37.12 3.628 36.626 3.569 36.133 3.5 35.64 3.401 35.146 3.253 35.038 3.204 34.653 3.046 34.16 2.799 33.666 2.513 33.173 2.247 32.68 1.98 32.581 1.931 32.186 1.714 31.693 1.467 31.199 1.25 30.706 1.062 30.213 .914 29.719 .816 29.226 .757 28.733 .737 28.239 .776 27.746 .865 27.253 1.013 26.759 1.21 26.266 1.457 25.773 1.724 25.417 1.931 25.279 2 24.786 2.256 24.293 2.523 23.799 2.779 23.306 3.046 23.01 3.204 22.813 3.302 22.319 3.549 21.826 3.805 21.332 4.101 20.839 4.437 20.77 4.486 20.346 4.812 19.852 5.226 19.359 5.69 19.28 5.769 18.866 6.193 18.372 6.736 18.106 7.052 17.869 7.318 17.376 7.94 17.08 8.334 16.882 8.601 16.389 9.301 16.182 9.607 15.896 10.051 15.402 10.841 15.383 10.89 14.909 11.689 14.643 12.173 14.416 12.607 14.011 13.455 13.922 13.663 13.508 14.738 13.429 14.975 13.113 16.011 12.936 16.652 12.768 17.294 12.442 18.497 12.423 18.576 12.067 19.859 11.949 20.264 11.722 21.142 11.456 22.198 11.406 22.415 11.11 23.697 10.962 24.319 10.814 24.98 10.528 26.263 10.469 26.47 10.183 27.536 9.976 28.187 9.778 28.818 9.482 29.588 9.305 30.101 8.989 30.89 8.821 31.384 8.495 32.361 8.407 32.666 8.042 33.939 8.002 34.107 7.765 35.222 7.578 36.505 7.509 37.274 7.469 37.787 7.44 39.07 7.44 40.343 7.39 41.626 7.252 42.908 7.035 44.191 7.015 44.319 6.838 45.474 6.542 46.747 6.522 46.806 6.118 48.029 6.029 48.256 5.535 49.174 5.447 49.312 5.042 49.865 4.549 50.536 4.509 50.595 4.055 51.621 3.967 51.878 4.016 53.15 4.055 53.298 4.47 54.433 4.549 54.729 4.855 55.716 4.943 56.998 4.983 58.281 4.973 59.554 4.933 60.837 4.864 62.119 4.825 63.402 4.805 64.685 4.805 65.958 4.795 67.24 4.756 68.523 4.647 69.806 4.549 70.477 4.44 71.089 4.085 72.361 4.055 72.44 3.562 73.2 3.098 73.644 3.069 73.674 2.575 73.92 2.082 74.049 1.589 74.118 1.095 74.128 .602 74.039 .109 73.743 .039 73.674 .039 73.644 .039 73.328 .039 72.361 .039 72.194 .039 71.089 .039 70.911 .039 69.806 .039 69.628 .039 68.523 .039 68.346 .039 67.24 .039 67.063 .039 65.958 .039 65.79 .039 64.685 .039 64.507 .039 63.402 .039 63.225 .039 62.119 .039 61.942 .039 60.837 .039 60.659 .039 59.554 .039 59.386 .039 58.281 .039 58.104 .039 56.998 .039 56.821 .039 56.811 .039 55.716 .039 55.459 .109 55.42 .602 54.966 .898 54.433 1.095 53.456 1.125 53.15 1.243 51.878 1.569 50.595 1.589 50.555 2.082 49.371 2.102 49.312 2.575 48.256 2.684 48.029 3.069 47.25 3.355 46.747 3.562 46.391 4.055 45.592 4.124 45.474 4.549 44.783 4.855 44.191 5.042 43.905 5.535 42.987 5.565 42.908 6.009 41.626 6.029 41.527 6.177 40.343 6.196 39.07 6.196 37.787 6.246 36.505 6.354 35.222 6.522 34.008 6.532 33.939 6.788 32.666 7.015 31.699 7.094 31.384 7.45 30.101 7.509 29.874 7.815 28.818 8.002 28.177 8.19 27.536 8.495 26.45 8.545 26.263 8.861 24.98 8.989 24.388 9.147 23.697 9.413 22.415 9.482 22.069 9.68 21.142 9.976 19.879 9.985 19.859 10.321 18.576 10.469 18.044 10.676 17.294 10.962 16.228 11.021 16.011 11.396 14.738 11.456 14.541 11.831 13.455 11.949 13.11 12.314 12.173 12.442 11.847 12.876 10.89 12.936 10.752 13.429 9.785 13.528 9.607 13.922 8.897 14.258 8.334 14.416 8.078 14.909 7.328 15.106 7.052 15.402 6.627 15.896 5.966 16.054 5.769 16.389 5.315 16.882 4.694 17.05 4.486 17.376 4.072 17.869 3.48 18.116 3.204 18.372 2.908 18.866 2.385 19.339 1.931 19.359 1.911 19.852 1.437 20.346 .984 20.731 .648 20.839 .549 21.332 .125 21.826 -.299 22.23 -.635 22.319 -.635 22.813 -.635 23.306 -.635 23.799 -.635 24.293 -.635 24.786 -.635 25.279 -.635 25.773 -.635 26.266 -.635 26.759 -.635 27.253 -.635 27.746 -.635 28.239 -.635 28.733 -.635 29.226 -.635 36.005 -3.733 43.04 -.635" fill="#e3e798"/>
      <path d="M.039,54.433v1.026l.069-.039.493-.454.296-.533.197-.977.03-.296.118-1.283.326-1.283.01-.039.493-1.184.03-.059.464-1.056.109-.227.385-.779.286-.493.207-.365.493-.799.069-.128.424-.691.306-.592.187-.286.493-.918.03-.079.444-1.283.02-.109.148-1.174.02-1.283v-1.283l.049-1.283.109-1.283.168-1.214.01-.069.257-1.283.227-.967.079-.316.355-1.283.069-.227.306-1.046.187-.641.187-.641.306-1.095.049-.187.316-1.283.128-.592.148-.691.266-1.283.069-.345.197-.937.296-1.263v-.02l.345-1.283.148-.533.207-.75.286-1.066.059-.217.375-1.283.059-.187.365-1.085.128-.345.355-.937.138-.316.424-.957.069-.138.493-.967.089-.168.405-.71.335-.572.158-.257.493-.75.197-.276.296-.424.493-.661.148-.197.345-.454.493-.622.168-.207.326-.414.493-.592.237-.266.257-.296.493-.523.474-.454.02-.02.493-.474.493-.444.395-.335.099-.099.493-.434.493-.424.405-.335h-4.647l-.197.227-.493.622-.306.434-.187.257-.493.73-.187.286-.306.444-.493.74-.059.099-.434.612-.454.671-.039.049-.493.72-.335.513-.158.257-.493.829-.109.197-.385.74-.266.543-.227.493-.355.789-.138.335-.395.947-.099.257-.375,1.016-.118.335-.326.937-.168.562-.227.72-.266.977-.089.296-.355,1.283-.059.207-.296,1.076-.197.799-.118.483-.276,1.283-.099.513-.158.77-.266,1.283-.059.276-.247,1.006-.247.868-.118.414-.375,1.263-.01.02-.345,1.283-.148.641-.138.641-.237,1.283-.118.829-.069.454-.158,1.283-.089,1.283-.039,1.283v1.283l.02,1.283-.118,1.283-.039.118-.493,1.006-.109.158-.385.385-.493.444-.493.424-.03.03-.464.503-.493.612-.118.158-.375.72-.266.562-.227.553-.326.73-.168.365-.069.128v7.183h.02ZM61.846,9.607l.444.365.493.296.493.197.493.099.493.039.493-.03.493-.089.493-.158.493-.227.493-.296.257-.197.237-.197.493-.474.493-.533.069-.079.424-.543.493-.671.049-.069.444-.681.365-.592.128-.217.493-.908.079-.158.414-.878.187-.405.306-.819.168-.464.326-1.135.039-.148.247-1.283h-16.083l.01.02.493.888.197.375.296.602.335.681.158.326.464.957.03.059.493,1.085.059.138.434.977.138.296.355.77.266.513.227.454.493.829v.01l.493.681.493.553.049.039Z" fill="#abd2a1"/>
      <polygon points=".039 46.747 .039 46.934 .039 47.24 .109 47.112 .276 46.747 .602 46.017 .829 45.474 1.095 44.911 1.47 44.191 1.589 44.033 2.082 43.412 2.546 42.908 2.575 42.879 3.069 42.455 3.562 42.011 3.947 41.626 4.055 41.468 4.549 40.461 4.588 40.343 4.707 39.07 4.687 37.787 4.687 36.505 4.726 35.222 4.815 33.939 4.973 32.666 5.042 32.213 5.16 31.384 5.397 30.101 5.535 29.46 5.683 28.818 6.029 27.536 6.029 27.526 6.404 26.263 6.522 25.848 6.769 24.98 7.015 23.974 7.075 23.697 7.351 22.415 7.509 21.645 7.607 21.142 7.884 19.859 8.002 19.376 8.199 18.576 8.495 17.501 8.555 17.294 8.91 16.011 8.989 15.715 9.265 14.738 9.482 14.018 9.66 13.455 9.976 12.508 10.094 12.173 10.469 11.156 10.568 10.89 10.962 9.943 11.11 9.607 11.456 8.818 11.683 8.334 11.949 7.782 12.334 7.052 12.442 6.854 12.936 6.026 13.103 5.769 13.429 5.256 13.922 4.546 13.962 4.486 14.416 3.815 14.85 3.204 14.909 3.105 15.402 2.365 15.718 1.931 15.896 1.635 16.389 .905 16.577 .648 16.882 .214 17.376 -.418 17.573 -.635 17.376 -.635 16.882 -.635 16.389 -.635 15.896 -.635 15.402 -.635 14.909 -.635 14.416 -.635 13.922 -.635 13.508 -.635 13.429 -.506 12.936 .411 12.817 .648 12.442 1.26 12.067 1.931 11.949 2.108 11.456 2.947 11.308 3.204 10.962 3.776 10.548 4.486 10.469 4.624 9.976 5.493 9.828 5.769 9.482 6.42 9.166 7.052 8.989 7.407 8.545 8.334 8.495 8.433 8.002 9.459 7.933 9.607 7.509 10.545 7.351 10.89 7.015 11.739 6.838 12.173 6.522 13.031 6.354 13.455 6.029 14.343 5.871 14.738 5.535 15.695 5.417 16.011 5.042 17.215 5.022 17.294 4.667 18.576 4.549 19.08 4.361 19.859 4.095 21.142 4.055 21.339 3.848 22.415 3.611 23.697 3.562 23.964 3.375 24.98 3.138 26.263 3.069 26.638 2.921 27.536 2.733 28.818 2.595 30.101 2.575 30.308 2.477 31.384 2.368 32.666 2.269 33.939 2.19 35.222 2.112 36.505 2.082 37.008 2.033 37.787 1.825 39.07 1.589 39.435 1.095 40.057 .829 40.343 .602 40.511 .109 40.866 .039 40.925 .039 41.586 .039 41.626 .039 42.731 .039 42.908 .039 44.014 .039 44.191 .039 45.296 .039 45.474 .039 46.579 .039 46.747" fill="#6bbea3"/>
      <polygon points=".039 40.797 .039 40.925 .109 40.866 .602 40.511 .829 40.343 1.095 40.057 1.589 39.435 1.825 39.07 2.033 37.787 2.082 37.008 2.112 36.505 2.19 35.222 2.269 33.939 2.368 32.666 2.477 31.384 2.575 30.308 2.595 30.101 2.733 28.818 2.921 27.536 3.069 26.638 3.138 26.263 3.375 24.98 3.562 23.964 3.611 23.697 3.848 22.415 4.055 21.339 4.095 21.142 4.361 19.859 4.549 19.08 4.667 18.576 5.022 17.294 5.042 17.215 5.417 16.011 5.535 15.695 5.871 14.738 6.029 14.343 6.354 13.455 6.522 13.031 6.838 12.173 7.015 11.739 7.351 10.89 7.509 10.545 7.933 9.607 8.002 9.459 8.495 8.433 8.545 8.334 8.989 7.407 9.166 7.052 9.482 6.42 9.828 5.769 9.976 5.493 10.469 4.624 10.548 4.486 10.962 3.776 11.308 3.204 11.456 2.947 11.949 2.108 12.067 1.931 12.442 1.26 12.817 .648 12.936 .411 13.429 -.506 13.508 -.635 13.429 -.635 12.936 -.635 12.442 -.635 11.949 -.635 11.456 -.635 10.962 -.635 10.469 -.635 9.976 -.635 9.482 -.635 8.989 -.635 8.495 -.635 8.002 -.635 7.509 -.635 7.015 -.635 6.522 -.635 6.029 -.635 5.535 -.635 5.042 -.635 4.549 -.635 4.055 -.635 3.562 -.635 3.069 -.635 2.575 -.635 2.082 -.635 1.589 -.635 1.095 -.635 .602 -.635 .109 -.635 .039 -.635 .039 .441 .039 .48 .039 .648 .039 1.753 .039 1.931 .039 3.036 .039 3.204 .039 4.309 .039 4.486 .039 5.591 .039 5.769 .039 6.874 .039 7.052 .039 8.157 .039 8.334 .039 9.44 .039 9.607 .039 10.712 .039 10.89 .039 11.995 .039 12.173 .039 13.278 .039 13.455 .039 14.561 .039 14.738 .039 15.843 .039 16.011 .039 17.116 .039 17.294 .039 18.399 .039 18.576 .039 19.681 .039 19.859 .039 20.964 .039 21.142 .039 22.247 .039 22.415 .039 23.52 .039 23.697 .039 24.802 .039 24.98 .039 26.085 .039 26.263 .039 27.368 .039 27.536 .039 28.651 .039 28.818 .039 29.923 .039 30.101 .039 31.206 .039 31.384 .039 32.489 .039 32.666 .039 33.772 .039 33.939 .039 35.044 .039 35.222 .039 36.327 .039 36.505 .039 37.61 .039 37.787 .039 38.893 .039 39.07 .039 40.175 .039 40.343 .039 40.797" fill="#3387bd"/>
    </g>
  </g>
  <path d="M73.842,31.435l-4.957-.822c-.697-.117-1.269-.603-1.488-1.269-.525-1.613-1.198-3.195-1.989-4.707-.337-.634-.282-1.394.133-1.981l2.835-3.97c.987-1.386.838-3.266-.368-4.472l-5.646-5.639c-1.206-1.206-3.086-1.363-4.472-.368l-4.213,3.015c-.564.407-1.3.47-1.919.164-1.261-.611-2.569-1.143-3.884-1.574-.666-.219-1.151-.783-1.269-1.488l-.822-4.949c-.282-1.684-1.715-2.898-3.422-2.898h-7.98c-1.707,0-3.14,1.222-3.422,2.898l-.822,4.957c-.117.697-.595,1.269-1.253,1.48-1.472.478-2.929,1.081-4.323,1.793-.619.313-1.363.251-1.934-.157l-4.088-2.921c-1.386-.987-3.266-.838-4.472.368l-5.646,5.646c-1.206,1.206-1.363,3.086-.368,4.472l2.921,4.088c.415.58.47,1.316.157,1.934-.705,1.394-1.308,2.851-1.793,4.323-.211.658-.783,1.143-1.48,1.253l-4.957.822c-1.684.282-2.898,1.715-2.898,3.422v7.98c0,1.707,1.222,3.14,2.898,3.422l4.949.822c.697.117,1.269.603,1.488,1.269.431,1.323.955,2.631,1.574,3.884.298.619.235,1.355-.164,1.919l-3.015,4.213c-.987,1.386-.83,3.266.368,4.472l5.639,5.646c1.206,1.206,3.086,1.363,4.472.368l3.97-2.835c.587-.415,1.339-.47,1.981-.133,1.504.791,3.086,1.457,4.707,1.989.666.219,1.159.791,1.269,1.488l.822,4.957c.282,1.684,1.715,2.898,3.422,2.898h7.98c1.707,0,3.14-1.222,3.422-2.898l.822-4.957c.117-.697.595-1.269,1.261-1.48,1.48-.486,2.937-1.081,4.323-1.793.619-.313,1.363-.251,1.942.157l4.088,2.921c1.386.987,3.266.838,4.472-.368l5.646-5.646c1.206-1.206,1.363-3.086.368-4.472l-2.921-4.088c-.415-.58-.47-1.323-.157-1.942.705-1.386,1.308-2.843,1.793-4.323.211-.658.783-1.143,1.48-1.261l4.957-.822c1.684-.282,2.898-1.715,2.898-3.422v-7.965c-.016-1.707-1.237-3.148-2.913-3.422h0ZM28.146,44.444c.987.846,1.096,2.326.258,3.313-.462.54-1.12.822-1.786.822-.54,0-1.089-.188-1.527-.564l-8.615-7.385c-.525-.446-.822-1.096-.822-1.786s.298-1.339.822-1.786l8.615-7.385c.987-.846,2.467-.728,3.313.258s.728,2.467-.258,3.313l-6.531,5.599,6.531,5.599ZM45.312,23.855l-9.398,31.326c-.305,1.018-1.237,1.676-2.248,1.676-.227,0-.454-.031-.674-.102-1.245-.376-1.95-1.684-1.574-2.929l9.398-31.326c.376-1.245,1.676-1.95,2.929-1.574,1.237.376,1.942,1.692,1.566,2.929h0ZM60.254,40.629l-8.615,7.385c-.446.384-.987.564-1.527.564-.658,0-1.323-.282-1.786-.822-.846-.987-.728-2.467.258-3.313l6.531-5.599-6.531-5.599c-.987-.846-1.096-2.326-.258-3.313.846-.987,2.326-1.096,3.313-.258l8.615,7.385c.525.446.822,1.096.822,1.786s-.298,1.339-.822,1.786h0Z" fill="none" stroke="#000" stroke-miterlimit="10" stroke-width=".5"/>
</svg>