<?xml version="1.0" encoding="UTF-8"?>
<svg id="Layer_1" xmlns="http://www.w3.org/2000/svg" xmlns:xlink="http://www.w3.org/1999/xlink" version="1.1" viewBox="0 0 232.5 271.25">
  <!-- Generator: Adobe Illustrator 30.2.1, SVG Export Plug-In . SVG Version: 2.1.1 Build 1)  -->
  <defs>
    <clipPath id="clippath">
      <path d="M213.125,29.062v125.938H48.438c-11.383,0-20.564,2.873-27.776,7.681-.438.293-.867.59-1.287.893V48.438c0-16.051,13.012-29.062,29.062-29.062h155c5.35,0,9.688,4.337,9.688,9.688Z" clip-rule="evenodd" fill="none"/>
    </clipPath>
    <clipPath id="clippath-1">
      <polygon points="223.678 309.578 290.905 193.158 305.499 167.869 290.905 142.58 223.678 26.16 216.591 13.872 38.772 13.872 31.685 26.16 -36.381 144.048 -50.137 167.911 -36.381 191.774 31.685 309.662 38.772 321.95 216.591 321.95 223.678 309.578" fill="none"/>
    </clipPath>
  </defs>
  <path d="M0,48.438C0,21.686,21.686,0,48.438,0h155c16.051,0,29.062,13.012,29.062,29.062v213.125c0,5.35-4.337,9.688-9.688,9.688h-29.062c-5.35,0-9.688-4.337-9.688-9.688s4.337-9.688,9.688-9.688h19.375v-58.125H48.438c-12.33,0-22.867,7.678-27.089,18.515-.73,2.195-1.201,4.293-1.5,6.086-.246,1.476-.365,2.685-.423,3.488-.028.399-.041.693-.047.862l-.004.153c.022,16.032,13.025,29.022,29.062,29.022h9.688c5.35,0,9.688,4.337,9.688,9.688s-4.337,9.688-9.688,9.688h-9.688c-26.751,0-48.438-21.686-48.438-48.438V48.438ZM213.125,29.062v125.938H48.438c-11.383,0-20.564,2.873-27.776,7.681-.438.293-.867.59-1.287.893V48.438c0-16.051,13.012-29.062,29.062-29.062h155c5.35,0,9.688,4.337,9.688,9.688ZM96.875,193.75c-5.35,0-9.688,4.337-9.688,9.688v58.125c0,3.573,1.967,6.856,5.116,8.541,3.15,1.686,6.972,1.501,9.945-.481l23.689-15.793,23.689,15.793c2.973,1.981,6.795,2.166,9.945.481,3.149-1.686,5.116-4.969,5.116-8.541v-58.125c0-5.35-4.337-9.688-9.688-9.688h-58.125ZM106.562,243.461v-30.336h38.75v30.336l-14.001-9.335c-3.254-2.169-7.493-2.169-10.747,0l-14.001,9.335Z" fill-rule="evenodd"/>
  <g clip-path="url(#clippath)">
    <g id="Layer_2">
      <g clip-path="url(#clippath-1)">
        <g>
          <rect x="-33.99" y="13.117" width="325.944" height="327.873" transform="translate(306.035 48.072) rotate(90)" fill="#fff"/>
          <path d="M-34.997,283.535v56.575H-.943l-.042-.042-.294-.545-1.258-2.097-.797-2.097-.042-2.097.084-2.097-.042-2.097-.126-2.097-.294-2.097-.545-2.097-.629-2.097-.671-2.097-.881-1.971-.042-.126-1.384-2.097-1.636-2.097-1.719-2.097-.629-.797-.839-1.3-1.51-2.097-1.594-2.097-1.132-2.097-.21-2.097,1.007-2.097.755-2.097.881-2.097,1.216-2.097,1.132-2.097.336-.839.545-1.258.587-2.097.503-2.097.461-2.097.419-2.097.503-2.097.545-2.097.21-2.097.042-2.097.294-2.097.671-2.097.713-1.887.084-.21.671-2.097.503-2.097.252-2.097-.294-2.097-.839-2.097-.377-.629-.881-1.468-1.636-2.097-2.307-2.097-.587-.377-3.103-1.719-2.349-1.007-3.02-1.09-2.432-.755-5.452-1.258-.503-.084-4.949-.713-1.3-.126v43.406h-.126ZM-34.997,149.626v5.997l.336-.755.21-2.097-.294-2.097-.252-1.048ZM31.643,136.457l-2.013,1.636-1.719,2.097-.881,2.097-.21,2.097.377,2.097.797,2.097,1.3,2.097,1.845,2.097.545.503,1.636,1.594,2.6,2.097,1.216.881,2.055,1.216,3.397,1.636,1.342.461,4.11,1.216,4.152.881,1.258.21,5.452.587,5.452.252,5.452.042,5.452-.168,5.452-.336,5.452-.419,4.026-.21,1.426-.084,5.452-.168,5.452-.168,5.452-.126,5.452-.168,5.452-.294,5.452-.503,4.487-.629.923-.168,5.452-1.342,1.468-.587,3.984-2.097h0l2.516-2.097,2.139-2.097.797-.923.839-1.174,1.426-2.097,1.384-2.097,1.384-2.097.419-.713.713-1.384.881-2.097.545-2.097.294-2.097.168-2.097.294-2.097.294-2.097.21-2.097.084-2.097.377-2.097.755-2.097.881-1.51.336-.587,1.3-2.097,1.174-2.097.839-2.097.545-2.097.294-2.097.084-2.097-.503-2.097-1.216-2.097-1.761-2.097-1.048-1.132-1.048-.965-2.558-2.097-1.803-1.51-.965-.587-1.594-2.097-.461-2.097-.084-2.097-.671-2.097-1.132-2.097-.587-.713-1.132-1.384-2.013-2.097-2.307-1.887-.336-.21-4.278-2.097-.797-.294-5.116-1.803-.336-.084-5.452-1.468-2.726-.503-2.726-.461-5.452-.336-5.452.294-3.942.503-1.51.21-5.452,1.09-3.187.755-2.265.671-4.278,1.426-1.132.461-3.355,1.636-2.097,1.3-1.09.797-2.223,2.097-1.51,2.097-.587,1.426-.252.671-.629,2.097-.755,2.097-.881,2.097-.881,2.097-.965,2.097-1.048,2.097h0l-1.132,2.097-1.426,2.097-1.719,2.097-1.174,1.594-.336.503-1.007,2.097-.629,2.097-.755,2.097-1.09,2.097-1.594,1.971-.126.126-2.181,2.097-2.642,2.097-.503.336-2.474,1.761-2.936,1.971-.168.126-3.103,2.097-2.181,1.468-.965.629-3.145,2.097-1.342.881-1.887,1.216-3.02,2.097-.839.545Z" fill="#d53e4f"/>
          <path d="M-51.688,167.701l16.733,27.511v15.349l1.216-1.174.084-.042,2.936-2.055,2.516-1.426,1.3-.671,4.152-1.594,1.426-.503,4.026-1.174,3.649-.923,1.803-.461,5.452-1.468.671-.21,4.739-1.51,2.181-.587,3.271-.965,4.236-1.132,1.216-.377,5.452-1.51,1.09-.252,4.362-.965,5.452-.839,2.39-.294,3.061-.419,5.452-.713,5.452-.587,5.075-.377.377-.042,5.452-.294,5.452-.377,5.452-.671,4.613-.671.839-.126,5.452-.839,5.452-.587h5.452l5.452.545,5.452.797.755.168,4.697,1.132,2.684.965,2.768.923,3.271,1.174,2.181.671,5.452,1.216,1.678.21,3.774.377,5.452.084,4.907-.419.503-.042,5.452-1.132,3.313-.923,2.139-.629,3.397-1.468,2.055-.923,1.971-1.174,3.313-2.097.168-.126,2.642-1.971,2.642-2.097.168-.126,2.181-1.971,2.223-2.097,1.048-1.048.965-1.048,1.719-2.097,1.51-2.097,1.216-1.971.084-.126.923-2.097.587-2.097.377-2.097.294-2.097.419-2.097.755-2.097,1.174-2.097.881-1.174.839-.923,2.474-2.097,2.139-1.3,1.468-.797,3.984-1.678.965-.419,4.445-1.636,1.678-.461,3.774-1.007,4.194-1.09,1.258-.336,5.452-1.678.168-.084,4.404-2.097.881-.461,2.055-1.636,2.307-2.097,1.09-1.174.629-.923,1.216-2.097.923-2.097.587-2.097.294-2.097-.042-2.097-.461-2.097-.881-2.097-1.3-2.097-.965-1.132-1.174-.965-3.229-2.097-1.048-.545-3.649-1.552-1.803-.671-3.732-1.426-1.719-.587-3.607-1.51-1.845-.755-2.432-1.342-3.02-1.719-.629-.377-3.691-2.097-1.132-.629-2.6-1.468-2.81-1.678-.755-.419-3.691-2.097-.965-.587-2.39-1.51-3.02-1.845-.377-.252-3.355-2.097-1.719-.965-1.719-1.132-3.565-2.097-.126-.084-3.565-2.013-1.845-.965-2.055-1.132-3.355-1.678-.839-.419-4.571-2.013-.252-.084-5.2-1.887-.671-.21-4.781-1.51-2.013-.587-3.439-1.007-4.613-1.09-.797-.168-5.452-.755-5.452-.168-5.452.377-5.452.713h0l-5.452.797-5.452.923-2.055.377-3.397.671-5.452,1.384-.126.042-5.326,1.803-.755.294-4.571,2.097-.084.042-3.481,2.055-1.929,1.426-.923.671-2.39,2.097-1.929,2.097-.21.294-1.468,1.803-1.51,2.097-1.594,2.097-.839.923-1.3,1.174-3.02,2.097-1.132.671-2.852,1.426-2.558,1.258-2.013.839-3.439,1.594-1.258.503-4.194,1.845-.587.252-4.613,2.097-.252.126-3.691,1.971-1.719,1.048-1.803,1.048-3.397,2.097-.21.168-3.061,1.929-2.39,1.468-1.258.629-4.194,1.594-1.761.503-3.649.839-5.452.797-5.452.377h-5.452l-5.452-.252-5.452-.377-5.452-.461-1.3-.126v22.94l-17.237,28.979ZM-34.997,222.431v17.614l1.3.126,4.949.713.503.084,5.452,1.258,2.432.755,3.02,1.09,2.349,1.007,3.103,1.719.587.377,2.307,2.097,1.636,2.097.881,1.468.377.629.839,2.097.294,2.097-.252,2.097-.503,2.097-.671,2.097-.084.21-.713,1.887-.671,2.097-.294,2.097-.042,2.097-.21,2.097-.545,2.097-.503,2.097-.419,2.097-.461,2.097-.503,2.097-.587,2.097-.545,1.258-.336.839-1.132,2.097-1.216,2.097-.881,2.097-.755,2.097-1.007,2.097.21,2.097,1.132,2.097,1.594,2.097,1.51,2.097.839,1.3.629.797,1.719,2.097,1.636,2.097,1.384,2.097.042.126.881,1.971.671,2.097.629,2.097.545,2.097.294,2.097.126,2.097.042,2.097-.084,2.097.042,2.097.797,2.097,1.258,2.097.294.545.042.042h36.319l-.084-.629-.336-2.097-.377-2.097-.294-2.097-.294-2.097-.336-2.097-.377-2.097-.294-2.097-.126-2.097.084-2.097.294-2.097.461-2.097.503-2.097.713-2.097.755-2.097.755-2.097.755-2.097.126-.419.587-1.678.419-2.097v-2.097l-.336-2.097-.671-2.055h-.126s-1.09-2.097-1.09-2.097l-1.258-2.097-1.3-2.097-1.426-2.097-.377-.503-1.216-1.594-1.51-2.097-1.258-2.097-.965-2.097-.503-1.552-.21-.545-.713-2.097-.713-2.097-.755-2.097-.839-2.097-.923-2.097-1.048-2.097-.21-.377-.839-1.719-.923-2.097-.839-2.097-.713-2.097-.755-2.097-.755-2.097-.629-1.803-.084-.294-.839-2.097-1.174-2.097-1.719-2.097-1.594-1.342-1.048-.755-3.816-2.097-.545-.252-4.32-1.845-1.174-.503-3.816-1.594-1.594-.713-3.565-1.384-1.887-.755-3.607-1.342-1.845-.755-3.733-1.342-1.719-.713-3.942-1.384-1.51-.671-3.607-1.426-1.845-1.007-1.3-.671ZM29.588,138.093l2.013-1.636.587-.461,3.02-2.097,1.887-1.216,1.342-.881,3.145-2.097.965-.629,2.181-1.468,3.103-2.097.168-.126,2.936-1.971,2.474-1.761.503-.336,2.642-2.097,2.181-2.097.126-.126,1.594-1.971,1.09-2.097.755-2.097.629-2.097,1.007-2.097.336-.503,1.174-1.594,1.719-2.097,1.426-2.097,1.132-2.097h0l1.048-2.097.965-2.097.881-2.097.881-2.097.755-2.097.629-2.097.252-.671.587-1.426,1.51-2.097,2.223-2.097,1.09-.797,2.097-1.3,3.355-1.636,1.132-.461,4.278-1.426,2.265-.671,3.187-.755,5.452-1.09,1.51-.21,3.942-.503,5.452-.294,5.452.336,2.726.461,2.726.503,5.452,1.468.336.084,5.116,1.803.797.294,4.278,2.097.336.21,2.307,1.887,2.013,2.097,1.132,1.384.587.713,1.132,2.097.671,2.097.084,2.097.461,2.097,1.594,2.097.965.587,1.803,1.51,2.558,2.097,1.048.965,1.048,1.132,1.761,2.097,1.216,2.097.503,2.097-.084,2.097-.294,2.097-.545,2.097-.839,2.097-1.174,2.097-1.3,2.097-.336.587-.881,1.51-.755,2.097-.377,2.097-.084,2.097-.21,2.097-.294,2.097-.294,2.097-.168,2.097-.294,2.097-.545,2.097-.881,2.097-.713,1.384-.419.713-1.384,2.097-1.384,2.097-1.426,2.097-.839,1.174-.797.923-2.139,2.097-2.516,2.097h0l-3.984,2.097-1.468.587-5.452,1.342-.923.168-4.487.629-5.452.503-5.452.294-5.452.168-5.452.126-5.452.168-5.452.168-1.426.084-4.026.21-5.452.419-5.452.336-5.452.168-5.452-.042-5.452-.252-5.452-.587-1.258-.21-4.152-.881-4.11-1.216-1.342-.461-3.397-1.636-2.055-1.216-1.216-.881-2.6-2.097-1.636-1.594-.545-.503-1.845-2.097-1.3-2.097-.797-2.097-.377-2.097.21-2.097.881-2.097,1.971-2.181Z" fill="#ec6e45"/>
          <polygon points="-34.997 90.241 -34.997 91.206 -34.997 91.961 -34.997 92.422 -34.997 94.058 -34.997 94.519 -34.997 96.155 -34.997 96.616 -34.997 98.252 -34.997 98.713 -34.997 100.349 -34.997 100.81 -34.997 102.445 -34.997 102.907 -34.997 104.542 -34.997 105.004 -34.997 106.639 -34.997 107.143 -34.997 108.736 -34.997 109.239 -34.997 110.833 -34.997 111.336 -34.997 112.93 -34.997 113.433 -34.997 115.027 -34.997 115.111 -34.997 115.866 -33.697 115.992 -28.245 116.453 -22.793 116.83 -17.341 117.082 -11.931 117.082 -6.479 116.663 -1.027 115.866 2.622 115.027 4.425 114.524 8.619 112.93 9.877 112.301 12.226 110.833 15.287 108.904 15.539 108.736 18.936 106.639 20.739 105.591 22.5 104.542 26.191 102.571 26.443 102.445 31.014 100.349 31.643 100.097 35.795 98.252 37.095 97.706 40.534 96.155 42.505 95.316 45.105 94.058 47.957 92.632 49.089 91.961 52.109 89.822 53.409 88.69 54.248 87.725 55.883 85.628 57.393 83.531 58.861 81.728 59.071 81.434 61 79.338 63.348 77.241 64.313 76.57 66.242 75.144 69.723 73.131 69.849 73.047 74.42 70.95 75.175 70.656 80.501 68.853 80.627 68.811 86.079 67.469 89.434 66.756 91.531 66.379 96.941 65.456 102.393 64.659 102.393 64.659 107.845 63.946 113.297 63.611 118.749 63.737 124.159 64.491 124.997 64.659 129.611 65.75 133.05 66.756 135.063 67.343 139.844 68.853 140.515 69.063 145.715 70.95 145.967 71.076 150.538 73.047 151.377 73.466 154.774 75.144 156.829 76.318 158.716 77.241 162.281 79.296 162.406 79.338 165.971 81.434 167.732 82.567 169.41 83.531 172.765 85.628 173.184 85.922 176.204 87.725 178.594 89.277 179.601 89.822 183.292 91.961 184.046 92.38 186.856 94.058 189.498 95.526 190.631 96.155 194.321 98.252 194.95 98.587 197.97 100.349 200.36 101.691 202.248 102.445 205.812 103.955 207.532 104.542 211.264 105.968 213.068 106.639 216.716 108.191 217.723 108.736 220.994 110.833 222.168 111.756 223.133 112.93 224.433 115.027 225.314 117.124 225.775 119.221 225.817 121.318 225.481 123.415 224.936 125.512 224.014 127.608 222.797 129.705 222.168 130.586 221.078 131.802 218.771 133.899 216.716 135.493 215.836 135.996 211.432 138.093 211.264 138.135 205.812 139.854 204.554 140.19 200.36 141.28 196.628 142.287 194.95 142.748 190.463 144.384 189.498 144.761 185.514 146.481 184.046 147.277 181.908 148.578 179.433 150.674 178.594 151.597 177.756 152.771 176.581 154.868 175.785 156.965 175.407 159.062 175.114 161.159 174.736 163.256 174.149 165.353 173.226 167.45 173.184 167.576 171.968 169.547 170.417 171.644 168.697 173.74 167.732 174.789 166.684 175.837 164.461 177.934 162.281 179.905 162.113 180.031 159.471 182.128 156.829 184.099 156.661 184.225 153.348 186.322 151.377 187.496 149.364 188.419 145.967 189.887 143.786 190.516 140.515 191.438 135.063 192.571 134.559 192.613 129.611 193.074 124.159 192.99 120.426 192.613 118.749 192.403 113.297 191.187 111.116 190.516 107.845 189.341 105.077 188.419 102.393 187.496 97.738 186.322 96.941 186.154 91.531 185.357 86.079 184.812 80.627 184.812 75.175 185.357 69.723 186.196 68.926 186.322 64.313 187.035 58.861 187.706 53.409 188.083 47.957 188.419 47.621 188.419 42.505 188.796 37.095 189.383 31.643 190.138 28.581 190.516 26.191 190.809 20.739 191.648 16.419 192.613 15.287 192.864 9.877 194.374 8.661 194.71 4.425 195.842 1.154 196.806 -1.027 197.436 -5.766 198.903 -6.479 199.113 -11.931 200.581 -13.692 201 -17.341 201.923 -21.367 203.097 -22.793 203.6 -26.945 205.194 -28.245 205.865 -30.761 207.291 -33.697 209.346 -33.739 209.388 -34.997 210.604 -34.997 210.646 -34.997 211.485 -34.997 212.198 -34.997 213.582 -34.997 214.169 -34.997 215.679 -34.997 216.224 -34.997 217.818 -34.997 218.405 -34.997 219.914 -34.997 221.173 -34.997 222.011 -34.997 222.431 -33.697 223.102 -31.851 224.108 -28.245 225.534 -26.735 226.205 -22.793 227.589 -21.073 228.302 -17.341 229.644 -15.538 230.399 -11.931 231.741 -10.044 232.496 -6.479 233.88 -4.843 234.593 -1.027 236.186 .147 236.69 4.425 238.493 4.97 238.787 8.787 240.884 9.877 241.638 11.471 242.98 13.19 245.077 14.364 247.174 15.203 249.271 15.287 249.523 15.916 251.368 16.671 253.465 17.426 255.562 18.139 257.659 18.936 259.756 19.9 261.853 20.739 263.53 20.949 263.95 21.997 266.046 22.92 268.143 23.759 270.24 24.555 272.337 25.268 274.434 25.981 276.531 26.191 277.076 26.694 278.628 27.659 280.725 28.917 282.822 30.427 284.919 31.643 286.512 32.02 287.016 33.446 289.112 34.746 291.209 35.963 293.306 37.053 295.403 37.095 295.487 37.766 297.5 38.101 299.597 38.101 301.694 37.64 303.791 37.095 305.468 36.927 305.888 36.172 307.985 35.459 310.082 34.704 312.178 33.992 314.275 33.488 316.372 33.027 318.469 32.733 320.566 32.65 322.663 32.775 324.76 33.069 326.857 33.446 328.954 33.782 331.051 34.117 333.148 34.411 335.245 34.788 337.341 35.124 339.438 35.25 340.067 36.592 340.067 37.095 340.067 40.953 340.067 42.505 340.067 46.363 340.067 47.957 340.067 51.815 340.067 53.409 340.067 57.267 340.067 58.861 340.067 62.719 340.067 64.313 340.067 68.129 340.067 69.723 340.067 73.581 340.067 75.175 340.067 79.033 340.067 80.627 340.067 84.485 340.067 86.079 340.067 89.937 340.067 91.531 340.067 95.347 340.067 96.941 340.067 100.799 340.067 102.393 340.067 106.251 340.067 107.845 340.067 111.703 340.067 113.297 340.067 117.155 340.067 118.749 340.067 122.565 340.067 124.159 340.067 128.017 340.067 129.611 340.067 133.469 340.067 135.063 340.067 138.921 340.067 140.515 340.067 144.373 340.067 145.967 340.067 149.783 340.067 151.377 340.067 155.235 340.067 156.829 340.067 160.687 340.067 162.281 340.067 164.965 340.067 166.516 340.067 167.732 340.067 170.458 340.067 167.732 339.648 166.055 339.438 162.281 339.019 156.829 338.474 151.377 337.929 146.889 337.341 145.967 337.258 140.515 336.335 135.901 335.245 135.063 335.077 129.611 333.609 127.975 333.148 124.159 332.141 119.168 331.051 118.749 330.967 113.297 330.212 107.845 329.834 102.393 329.793 96.941 330.17 91.531 331.051 91.321 331.051 86.079 332.267 82.598 333.148 80.627 333.819 75.175 334.657 71.191 333.148 69.723 332.477 68.423 331.051 66.787 328.954 65.571 326.857 64.816 324.76 64.523 322.663 64.774 320.566 65.613 318.469 66.703 316.372 67.752 314.275 68.884 312.178 69.723 310.249 69.807 310.082 70.52 307.985 70.897 305.888 70.897 303.791 70.604 301.694 69.849 299.597 69.723 299.345 68.884 297.5 67.584 295.403 65.99 293.306 64.313 291.251 64.271 291.209 62.551 289.112 60.706 287.016 58.861 284.961 58.819 284.919 56.974 282.822 55.17 280.725 53.409 278.628 53.409 278.586 51.899 276.531 50.599 274.434 49.341 272.337 48.083 270.24 47.957 270.031 46.908 268.143 45.86 266.046 44.812 263.95 43.721 261.853 42.631 259.756 42.505 259.588 41.582 257.659 40.786 255.562 40.156 253.465 39.653 251.368 39.276 249.271 38.856 247.174 38.353 245.077 37.556 242.98 37.095 242.184 36.256 240.884 34.285 238.787 31.643 236.857 31.349 236.69 27.659 234.593 26.191 233.88 23.507 232.496 20.739 231.112 19.397 230.399 15.539 228.302 15.287 228.134 12.184 226.205 9.877 224.57 9.164 224.108 6.899 222.011 5.432 219.914 4.886 217.818 5.599 215.679 7.612 213.582 9.877 212.282 11.513 211.485 15.287 210.101 17.342 209.388 20.739 208.423 25.436 207.291 26.191 207.165 31.643 206.285 37.095 205.781 42.505 205.655 47.957 205.991 53.409 206.83 56.009 207.291 58.861 207.962 64.313 209.262 64.858 209.388 69.723 210.562 74.63 211.485 75.175 211.611 80.627 212.156 86.079 212.24 91.531 211.904 94.508 211.485 96.941 211.191 102.393 210.353 107.845 209.514 108.474 209.388 113.297 208.591 118.749 207.794 123.488 207.291 124.159 207.249 129.611 206.914 135.063 206.704 140.515 206.41 145.967 206.117 151.377 205.823 156.829 205.446 159.638 205.194 162.281 204.942 167.732 204.02 170.626 203.097 173.184 201.923 174.568 201 176.917 198.903 178.594 196.932 178.678 196.806 180.23 194.71 181.782 192.613 183.292 190.516 184.046 189.509 184.843 188.419 186.521 186.322 188.282 184.225 189.498 182.925 190.211 182.128 192.182 180.031 194.154 177.934 194.95 177.096 196.209 175.837 198.222 173.74 200.067 171.644 200.36 171.224 201.786 169.547 203.296 167.45 204.596 165.353 205.812 163.508 205.98 163.256 207.616 161.159 209.587 159.062 211.264 157.72 212.313 156.965 216.171 154.868 216.716 154.617 220.994 152.771 222.168 152.31 225.649 150.674 227.578 149.752 229.466 148.578 232.485 146.481 233.03 146.061 235.085 144.384 237.35 142.287 238.482 140.987 239.153 140.19 240.663 138.093 241.879 135.996 242.928 133.899 243.85 131.802 243.934 131.551 244.605 129.705 245.234 127.608 245.738 125.512 246.031 123.415 246.199 121.318 246.157 119.221 245.905 117.124 245.528 115.027 245.025 112.93 244.437 110.833 243.934 109.533 243.599 108.736 242.424 106.639 240.915 104.542 239.027 102.445 238.482 101.942 236.595 100.349 233.869 98.252 233.03 97.665 230.388 96.155 227.578 94.603 226.278 94.058 222.168 92.255 221.288 91.961 216.716 90.409 214.787 89.822 211.264 88.816 207.49 87.725 205.812 87.264 201.115 85.628 200.36 85.377 195.999 83.531 194.95 83.154 190.924 81.434 189.498 80.889 185.892 79.338 184.046 78.625 180.482 77.241 178.594 76.612 174.317 75.144 173.184 74.808 168.32 73.047 167.732 72.837 162.993 70.95 162.281 70.698 158.171 68.853 156.829 68.266 153.515 66.756 151.377 65.792 148.693 64.659 145.967 63.485 143.618 62.562 140.515 61.43 137.537 60.465 135.063 59.71 129.695 58.368 129.611 58.368 124.159 57.488 118.749 57.11 113.297 57.194 107.845 57.655 102.393 58.368 102.393 58.368 96.941 59.165 91.531 60.004 88.595 60.465 86.079 60.885 80.627 61.807 76.559 62.562 75.175 62.856 69.723 64.114 67.626 64.659 64.313 65.666 61.126 66.756 58.861 67.679 56.051 68.853 53.409 70.153 51.731 70.95 47.957 73.047 47.915 73.047 44.099 75.144 42.505 76.15 40.408 77.241 37.095 79.17 36.718 79.338 32.65 81.434 31.643 81.98 28.078 83.531 26.191 84.328 22.291 85.628 20.739 86.132 15.287 87.683 15.035 87.725 9.877 89.025 5.977 89.822 4.425 90.2 -1.027 91.29 -4.298 91.961 -6.479 92.38 -11.931 93.345 -17.341 93.89 -22.793 93.848 -28.245 92.926 -31.306 91.961 -33.697 90.996 -34.997 90.241" fill="#f6ac63"/>
          <polygon points="-34.997 48.219 -34.997 48.974 -34.997 49.981 -34.997 50.484 -34.997 52.078 -34.997 52.581 -34.997 54.175 -34.997 54.678 -34.997 56.272 -34.997 56.775 -34.997 58.368 -34.997 58.872 -34.997 60.465 -34.997 60.969 -34.997 62.562 -34.997 63.066 -34.997 64.659 -34.997 65.162 -34.997 66.756 -34.997 67.259 -34.997 68.853 -34.997 69.356 -34.997 70.95 -34.997 71.453 -34.997 73.047 -34.997 73.55 -34.997 75.144 -34.997 75.647 -34.997 77.241 -34.997 77.744 -34.997 79.338 -34.997 79.841 -34.997 81.434 -34.997 81.938 -34.997 83.531 -34.997 84.035 -34.997 85.628 -34.997 86.09 -34.997 87.683 -34.997 87.725 -34.997 89.067 -34.997 89.822 -34.997 90.241 -33.697 90.996 -31.306 91.961 -28.245 92.926 -22.793 93.848 -17.341 93.89 -11.931 93.345 -6.479 92.38 -4.298 91.961 -1.027 91.29 4.425 90.2 5.977 89.822 9.877 89.025 15.035 87.725 15.287 87.683 20.739 86.132 22.291 85.628 26.191 84.328 28.078 83.531 31.643 81.98 32.65 81.434 36.718 79.338 37.095 79.17 40.408 77.241 42.505 76.15 44.099 75.144 47.915 73.047 47.957 73.047 51.731 70.95 53.409 70.153 56.051 68.853 58.861 67.679 61.126 66.756 64.313 65.666 67.626 64.659 69.723 64.114 75.175 62.856 76.559 62.562 80.627 61.807 86.079 60.885 88.595 60.465 91.531 60.004 96.941 59.165 102.393 58.368 102.393 58.368 107.845 57.655 113.297 57.194 118.749 57.11 124.159 57.488 129.611 58.368 129.695 58.368 135.063 59.71 137.537 60.465 140.515 61.43 143.618 62.562 145.967 63.485 148.693 64.659 151.377 65.792 153.515 66.756 156.829 68.266 158.171 68.853 162.281 70.698 162.993 70.95 167.732 72.837 168.32 73.047 173.184 74.808 174.317 75.144 178.594 76.612 180.482 77.241 184.046 78.625 185.892 79.338 189.498 80.889 190.924 81.434 194.95 83.154 195.999 83.531 200.36 85.377 201.115 85.628 205.812 87.264 207.49 87.725 211.264 88.816 214.787 89.822 216.716 90.409 221.288 91.961 222.168 92.255 226.278 94.058 227.578 94.603 230.388 96.155 233.03 97.665 233.869 98.252 236.595 100.349 238.482 101.942 239.027 102.445 240.915 104.542 242.424 106.639 243.599 108.736 243.934 109.533 244.437 110.833 245.025 112.93 245.528 115.027 245.905 117.124 246.157 119.221 246.199 121.318 246.031 123.415 245.738 125.512 245.234 127.608 244.605 129.705 243.934 131.551 243.85 131.802 242.928 133.899 241.879 135.996 240.663 138.093 239.153 140.19 238.482 140.987 237.35 142.287 235.085 144.384 233.03 146.061 232.485 146.481 229.466 148.578 227.578 149.752 225.649 150.674 222.168 152.31 220.994 152.771 216.716 154.617 216.171 154.868 212.313 156.965 211.264 157.72 209.587 159.062 207.616 161.159 205.98 163.256 205.812 163.508 204.596 165.353 203.296 167.45 201.786 169.547 200.36 171.224 200.067 171.644 198.222 173.74 196.209 175.837 194.95 177.096 194.154 177.934 192.182 180.031 190.211 182.128 189.498 182.925 188.282 184.225 186.521 186.322 184.843 188.419 184.046 189.509 183.292 190.516 181.782 192.613 180.23 194.71 178.678 196.806 178.594 196.932 176.917 198.903 174.568 201 173.184 201.923 170.626 203.097 167.732 204.02 162.281 204.942 159.638 205.194 156.829 205.446 151.377 205.823 145.967 206.117 140.515 206.41 135.063 206.704 129.611 206.914 124.159 207.249 123.488 207.291 118.749 207.794 113.297 208.591 108.474 209.388 107.845 209.514 102.393 210.353 96.941 211.191 94.508 211.485 91.531 211.904 86.079 212.24 80.627 212.156 75.175 211.611 74.63 211.485 69.723 210.562 64.858 209.388 64.313 209.262 58.861 207.962 56.009 207.291 53.409 206.83 47.957 205.991 42.505 205.655 37.095 205.781 31.643 206.285 26.191 207.165 25.436 207.291 20.739 208.423 17.342 209.388 15.287 210.101 11.513 211.485 9.877 212.282 7.612 213.582 5.599 215.679 4.886 217.818 5.432 219.914 6.899 222.011 9.164 224.108 9.877 224.57 12.184 226.205 15.287 228.134 15.539 228.302 19.397 230.399 20.739 231.112 23.507 232.496 26.191 233.88 27.659 234.593 31.349 236.69 31.643 236.857 34.285 238.787 36.256 240.884 37.095 242.184 37.556 242.98 38.353 245.077 38.856 247.174 39.276 249.271 39.653 251.368 40.156 253.465 40.786 255.562 41.582 257.659 42.505 259.588 42.631 259.756 43.721 261.853 44.812 263.95 45.86 266.046 46.908 268.143 47.957 270.031 48.083 270.24 49.341 272.337 50.599 274.434 51.899 276.531 53.409 278.586 53.409 278.628 55.17 280.725 56.974 282.822 58.819 284.919 58.861 284.961 60.706 287.016 62.551 289.112 64.271 291.209 64.313 291.251 65.99 293.306 67.584 295.403 68.884 297.5 69.723 299.345 69.849 299.597 70.604 301.694 70.897 303.791 70.897 305.888 70.52 307.985 69.807 310.082 69.723 310.249 68.884 312.178 67.752 314.275 66.703 316.372 65.613 318.469 64.774 320.566 64.523 322.663 64.816 324.76 65.571 326.857 66.787 328.954 68.423 331.051 69.723 332.477 71.191 333.148 75.175 334.657 80.627 333.819 82.598 333.148 86.079 332.267 91.321 331.051 91.531 331.051 96.941 330.17 102.393 329.793 107.845 329.834 113.297 330.212 118.749 330.967 119.168 331.051 124.159 332.141 127.975 333.148 129.611 333.609 135.063 335.077 135.901 335.245 140.515 336.335 145.967 337.258 146.889 337.341 151.377 337.929 156.829 338.474 162.281 339.019 166.055 339.438 167.732 339.648 170.458 340.067 173.184 340.067 175.365 340.067 178.594 340.067 182.369 340.067 184.046 340.067 187.905 340.067 189.498 340.067 193.357 340.067 194.95 340.067 198.809 340.067 200.36 340.067 204.219 340.067 205.812 340.067 209.671 340.067 211.264 340.067 215.123 340.067 216.716 340.067 220.575 340.067 222.168 340.067 226.027 340.067 227.578 340.067 228.795 340.067 230.682 340.067 229.256 339.438 227.578 338.725 224.265 337.341 222.168 336.503 219.065 335.245 216.716 334.322 213.823 333.148 211.264 332.141 208.454 331.051 205.812 330.044 202.751 328.954 200.36 328.157 196.418 326.857 194.95 326.396 189.498 324.802 189.331 324.76 184.046 323.418 180.691 322.663 178.594 322.16 173.184 320.818 172.346 320.566 167.732 319.056 166.139 318.469 162.281 316.834 161.316 316.372 157.709 314.275 156.829 313.604 155.109 312.178 153.138 310.082 151.544 307.985 151.377 307.775 150.035 305.888 148.483 303.791 146.763 301.694 145.967 300.897 144.415 299.597 141.06 297.5 140.515 297.248 135.943 295.403 135.063 295.11 129.611 293.726 127.304 293.306 124.159 292.761 118.749 291.922 114.639 291.209 113.297 290.958 107.845 289.616 106.335 289.112 102.393 287.687 101.051 287.016 97.025 284.919 96.941 284.877 93.837 282.822 91.531 281.228 90.86 280.725 88.26 278.628 86.079 276.867 85.701 276.531 83.521 274.434 81.424 272.337 80.627 271.498 79.578 270.24 77.943 268.143 76.517 266.046 75.468 263.95 75.175 263.027 74.881 261.853 74.63 259.756 74.588 257.659 74.63 255.562 74.797 253.465 75.175 251.746 75.259 251.368 76.349 249.271 77.775 247.174 79.075 245.077 80.333 242.98 80.627 242.603 82.388 240.884 85.911 238.787 86.079 238.703 91.531 236.983 92.789 236.69 96.941 235.767 102.393 234.886 104.699 234.593 107.845 234.173 113.297 232.664 113.59 232.496 117.281 230.399 118.749 229.518 120.636 228.302 123.865 226.205 124.159 225.995 128.814 224.108 129.611 223.815 135.063 222.976 140.515 222.473 144.666 222.011 145.967 221.844 151.377 221.382 156.829 221.173 162.281 221.424 167.732 221.844 172.346 222.011 173.184 222.011 173.436 222.011 178.594 221.466 184.046 220.25 185.388 219.914 189.498 218.824 193.357 217.818 194.95 217.356 200.36 215.721 200.444 215.679 205.351 213.582 205.812 213.33 208.748 211.485 211.264 209.514 211.39 209.388 213.277 207.291 214.787 205.194 215.961 203.097 216.716 201.252 216.8 201 217.471 198.903 218.142 196.806 218.897 194.71 219.82 192.613 221.078 190.516 222.168 189.216 222.839 188.419 225.02 186.322 227.494 184.225 227.578 184.141 230.011 182.128 232.443 180.031 233.03 179.444 234.582 177.934 236.511 175.837 238.273 173.74 238.482 173.447 239.782 171.644 241.124 169.547 242.466 167.45 243.934 165.353 243.934 165.353 245.486 163.256 247.289 161.159 249.344 159.062 249.386 159.062 251.525 156.965 253.748 154.868 254.796 153.862 255.887 152.771 257.858 150.674 259.577 148.578 260.248 147.613 261.003 146.481 262.177 144.384 263.058 142.287 263.687 140.19 264.106 138.093 264.4 135.996 264.568 133.899 264.568 131.802 264.442 129.705 264.232 127.608 263.981 125.512 263.687 123.415 263.352 121.318 262.932 119.221 262.429 117.124 261.884 115.027 261.255 112.93 260.542 110.833 260.248 110.078 259.703 108.736 258.696 106.639 257.48 104.542 256.012 102.445 254.796 100.852 254.377 100.349 252.49 98.252 250.351 96.155 249.386 95.274 247.793 94.058 244.815 91.961 243.934 91.374 241.46 89.822 238.482 87.977 238.063 87.725 234.456 85.628 233.03 84.831 230.598 83.531 227.578 82.022 226.152 81.434 222.168 79.841 220.617 79.338 216.716 78.121 213.697 77.241 211.264 76.57 206.4 75.144 205.812 75.018 200.36 73.382 199.312 73.047 194.95 71.789 192.182 70.95 189.498 70.195 184.885 68.853 184.046 68.643 178.594 67.301 176.414 66.756 173.184 65.959 168.865 64.659 167.732 64.324 162.784 62.562 162.281 62.395 157.541 60.465 156.829 60.172 152.844 58.368 151.377 57.697 148.315 56.272 145.967 55.265 142.989 54.175 140.515 53.378 135.734 52.078 135.063 51.952 129.611 51.113 124.159 50.778 118.749 50.736 113.297 50.862 107.845 51.071 102.393 51.365 96.941 51.826 94.508 52.078 91.531 52.413 86.079 53.21 80.627 53.923 78.111 54.175 75.175 54.468 69.723 54.888 64.313 55.559 60.203 56.272 58.861 56.523 53.409 57.572 49.425 58.368 47.957 58.704 42.505 60.004 40.576 60.465 37.095 61.43 32.733 62.562 31.643 62.898 26.191 64.324 24.555 64.659 20.739 65.498 15.287 66.379 10.254 66.756 9.877 66.798 4.425 66.756 4.299 66.756 -1.027 66.253 -6.479 64.827 -6.856 64.659 -9.918 62.562 -11.595 60.465 -11.931 60.046 -12.937 58.368 -15.034 56.272 -17.341 54.971 -18.641 54.175 -22.793 52.665 -24.051 52.078 -28.245 50.61 -29.88 49.981 -33.697 48.681 -34.997 48.219" fill="#ffe08a"/>
          <polygon points="-33.697 14.04 -34.997 14.04 -34.997 14.333 -34.997 14.837 -34.997 16.43 -34.997 16.933 -34.997 18.527 -34.997 19.03 -34.997 20.624 -34.997 21.127 -34.997 22.721 -34.997 23.224 -34.997 24.818 -34.997 25.321 -34.997 26.915 -34.997 27.418 -34.997 29.012 -34.997 29.515 -34.997 31.109 -34.997 31.612 -34.997 33.206 -34.997 33.709 -34.997 35.302 -34.997 35.806 -34.997 37.399 -34.997 37.903 -34.997 39.496 -34.997 40 -34.997 41.593 -34.997 42.096 -34.997 43.69 -34.997 44.193 -34.997 45.787 -34.997 46.039 -34.997 47.632 -34.997 47.884 -34.997 48.219 -33.697 48.681 -29.88 49.981 -28.245 50.61 -24.051 52.078 -22.793 52.665 -18.641 54.175 -17.341 54.971 -15.034 56.272 -12.937 58.368 -11.931 60.046 -11.595 60.465 -9.918 62.562 -6.856 64.659 -6.479 64.827 -1.027 66.253 4.299 66.756 4.425 66.756 9.877 66.798 10.254 66.756 15.287 66.379 20.739 65.498 24.555 64.659 26.191 64.324 31.643 62.898 32.733 62.562 37.095 61.43 40.576 60.465 42.505 60.004 47.957 58.704 49.425 58.368 53.409 57.572 58.861 56.523 60.203 56.272 64.313 55.559 69.723 54.888 75.175 54.468 78.111 54.175 80.627 53.923 86.079 53.21 91.531 52.413 94.508 52.078 96.941 51.826 102.393 51.365 107.845 51.071 113.297 50.862 118.749 50.736 124.159 50.778 129.611 51.113 135.063 51.952 135.734 52.078 140.515 53.378 142.989 54.175 145.967 55.265 148.315 56.272 151.377 57.697 152.844 58.368 156.829 60.172 157.541 60.465 162.281 62.395 162.784 62.562 167.732 64.324 168.865 64.659 173.184 65.959 176.414 66.756 178.594 67.301 184.046 68.643 184.885 68.853 189.498 70.195 192.182 70.95 194.95 71.789 199.312 73.047 200.36 73.382 205.812 75.018 206.4 75.144 211.264 76.57 213.697 77.241 216.716 78.121 220.617 79.338 222.168 79.841 226.152 81.434 227.578 82.022 230.598 83.531 233.03 84.831 234.456 85.628 238.063 87.725 238.482 87.977 241.46 89.822 243.934 91.374 244.815 91.961 247.793 94.058 249.386 95.274 250.351 96.155 252.49 98.252 254.377 100.349 254.796 100.852 256.012 102.445 257.48 104.542 258.696 106.639 259.703 108.736 260.248 110.078 260.542 110.833 261.255 112.93 261.884 115.027 262.429 117.124 262.932 119.221 263.352 121.318 263.687 123.415 263.981 125.512 264.232 127.608 264.442 129.705 264.568 131.802 264.568 133.899 264.4 135.996 264.106 138.093 263.687 140.19 263.058 142.287 262.177 144.384 261.003 146.481 260.248 147.613 259.577 148.578 257.858 150.674 255.887 152.771 254.796 153.862 253.748 154.868 251.525 156.965 249.386 159.062 249.344 159.062 247.289 161.159 245.486 163.256 243.934 165.353 243.934 165.353 242.466 167.45 241.124 169.547 239.782 171.644 238.482 173.447 238.273 173.74 236.511 175.837 234.582 177.934 233.03 179.444 232.443 180.031 230.011 182.128 227.578 184.141 227.494 184.225 225.02 186.322 222.839 188.419 222.168 189.216 221.078 190.516 219.82 192.613 218.897 194.71 218.142 196.806 217.471 198.903 216.8 201 216.716 201.252 215.961 203.097 214.787 205.194 213.277 207.291 211.39 209.388 211.264 209.514 208.748 211.485 205.812 213.33 205.351 213.582 200.444 215.679 200.36 215.721 194.95 217.356 193.357 217.818 189.498 218.824 185.388 219.914 184.046 220.25 178.594 221.466 173.436 222.011 173.184 222.011 172.346 222.011 167.732 221.844 162.281 221.424 156.829 221.173 151.377 221.382 145.967 221.844 144.666 222.011 140.515 222.473 135.063 222.976 129.611 223.815 128.814 224.108 124.159 225.995 123.865 226.205 120.636 228.302 118.749 229.518 117.281 230.399 113.59 232.496 113.297 232.664 107.845 234.173 104.699 234.593 102.393 234.886 96.941 235.767 92.789 236.69 91.531 236.983 86.079 238.703 85.911 238.787 82.388 240.884 80.627 242.603 80.333 242.98 79.075 245.077 77.775 247.174 76.349 249.271 75.259 251.368 75.175 251.746 74.797 253.465 74.63 255.562 74.588 257.659 74.63 259.756 74.881 261.853 75.175 263.027 75.468 263.95 76.517 266.046 77.943 268.143 79.578 270.24 80.627 271.498 81.424 272.337 83.521 274.434 85.701 276.531 86.079 276.867 88.26 278.628 90.86 280.725 91.531 281.228 93.837 282.822 96.941 284.877 97.025 284.919 101.051 287.016 102.393 287.687 106.335 289.112 107.845 289.616 113.297 290.958 114.639 291.209 118.749 291.922 124.159 292.761 127.304 293.306 129.611 293.726 135.063 295.11 135.943 295.403 140.515 297.248 141.06 297.5 144.415 299.597 145.967 300.897 146.763 301.694 148.483 303.791 150.035 305.888 151.377 307.775 151.544 307.985 153.138 310.082 155.109 312.178 156.829 313.604 157.709 314.275 161.316 316.372 162.281 316.834 166.139 318.469 167.732 319.056 172.346 320.566 173.184 320.818 178.594 322.16 180.691 322.663 184.046 323.418 189.331 324.76 189.498 324.802 194.95 326.396 196.418 326.857 200.36 328.157 202.751 328.954 205.812 330.044 208.454 331.051 211.264 332.141 213.823 333.148 216.716 334.322 219.065 335.245 222.168 336.503 224.265 337.341 227.578 338.725 229.256 339.438 230.682 340.067 233.03 340.067 236.469 340.067 238.482 340.067 242.341 340.067 243.934 340.067 247.793 340.067 249.386 340.067 253.244 340.067 254.796 340.067 258.655 340.067 260.248 340.067 264.106 340.067 265.7 340.067 269.558 340.067 271.152 340.067 271.32 340.067 272.746 340.067 271.404 339.438 271.152 339.354 267.084 337.341 265.7 336.712 262.89 335.245 260.248 333.944 258.78 333.148 254.796 331.093 254.712 331.051 250.728 328.954 249.386 328.241 246.702 326.857 243.934 325.431 242.676 324.76 238.65 322.663 238.482 322.621 234.666 320.566 233.03 319.685 230.808 318.469 227.578 316.708 226.991 316.372 223.049 314.275 222.168 313.772 219.107 312.178 216.716 310.878 215.123 310.082 211.39 307.985 211.264 307.901 207.909 305.888 205.812 304.42 205.016 303.791 202.667 301.694 200.738 299.597 200.36 299.094 199.27 297.5 198.012 295.403 196.921 293.306 195.957 291.209 195.118 289.112 194.95 288.483 194.489 287.016 194.07 284.919 193.902 282.822 194.028 280.725 194.447 278.628 194.95 277.034 195.076 276.531 195.873 274.434 196.796 272.337 197.97 270.24 199.396 268.143 200.36 266.969 201.157 266.046 203.254 263.95 205.687 261.853 205.812 261.727 208.454 259.756 211.264 257.869 211.6 257.659 215.207 255.562 216.716 254.723 219.191 253.465 222.168 251.997 223.468 251.368 227.578 249.313 227.746 249.271 231.604 247.174 233.03 246.336 235.001 245.077 237.895 242.98 238.482 242.519 240.286 240.884 242.173 238.787 243.347 236.69 243.934 234.593 243.85 232.496 243.725 230.399 243.766 228.302 243.934 227.505 244.144 226.205 244.731 224.108 245.528 222.011 246.534 219.914 247.751 217.818 249.093 215.679 249.386 215.343 250.644 213.582 252.196 211.485 253.664 209.388 254.796 207.752 255.132 207.291 256.6 205.194 257.984 203.097 259.326 201 260.248 199.449 260.584 198.903 261.926 196.806 263.352 194.71 264.861 192.613 265.7 191.564 266.497 190.516 268.049 188.419 269.475 186.322 270.775 184.225 271.152 183.596 271.949 182.128 272.914 180.031 273.626 177.934 274.172 175.837 274.507 173.74 274.801 171.644 275.052 169.547 275.346 167.45 275.765 165.353 276.394 163.256 276.604 162.795 277.275 161.159 278.324 159.062 279.54 156.965 280.672 154.868 281.804 152.771 282.014 152.352 282.937 150.674 283.985 148.578 284.908 146.481 285.705 144.384 286.334 142.287 286.753 140.19 287.005 138.093 287.089 135.996 286.921 133.899 286.543 131.802 285.914 129.705 285.076 127.608 284.027 125.512 282.895 123.415 282.014 121.905 281.721 121.318 280.63 119.221 279.498 117.124 278.407 115.027 277.275 112.93 276.604 111.672 276.185 110.833 275.136 108.736 274.046 106.639 272.788 104.542 271.362 102.445 271.152 102.152 269.768 100.349 268.007 98.252 266.036 96.155 265.7 95.819 263.897 94.058 261.59 91.961 260.248 90.829 259.116 89.822 256.474 87.725 254.796 86.467 253.664 85.628 250.686 83.531 249.386 82.651 247.499 81.434 244.144 79.338 243.934 79.254 240.537 77.241 238.482 76.108 236.637 75.144 233.03 73.424 232.15 73.047 227.578 71.285 226.572 70.95 222.168 69.608 219.442 68.853 216.716 68.14 211.6 66.756 211.264 66.672 205.812 65.162 204.093 64.659 200.36 63.695 195.873 62.562 194.95 62.353 189.498 61.094 186.856 60.465 184.046 59.836 178.594 58.62 177.714 58.368 173.184 57.152 170.417 56.272 167.732 55.433 164.461 54.175 162.281 53.42 158.925 52.078 156.829 51.365 152.677 49.981 151.377 49.603 145.967 48.052 145.254 47.884 140.515 46.877 135.063 46.081 131.791 45.787 129.611 45.619 124.159 45.493 118.749 45.493 113.297 45.284 107.845 44.697 102.393 43.774 101.848 43.69 96.941 42.935 91.531 41.677 91.279 41.593 86.079 39.874 85.114 39.496 81.214 37.399 80.627 37.022 78.278 35.302 75.426 33.206 75.175 33.038 70.813 31.109 69.723 30.731 64.313 30.941 63.684 31.109 58.861 32.87 57.603 33.206 53.409 34.506 47.957 34.883 42.505 35.051 37.095 35.009 31.643 34.841 26.191 34.548 20.739 34.38 15.287 34.296 9.877 34.296 4.425 34.254 -1.027 34.086 -6.479 33.625 -9.331 33.206 -11.931 32.744 -17.341 31.234 -17.676 31.109 -20.906 29.012 -22.793 27.041 -22.919 26.915 -23.967 24.818 -24.512 22.721 -24.806 20.624 -24.848 18.527 -24.47 16.43 -23.212 14.333 -22.919 14.04 -24.177 14.04 -27.49 14.04 -28.245 14.04 -32.942 14.04 -33.697 14.04" fill="#fbf5c0"/>
          <polygon points="292.918 196.806 292.918 198.903 292.918 201 292.918 203.097 292.918 205.194 292.918 207.291 292.918 209.388 292.918 211.485 292.918 213.582 292.918 215.679 292.918 217.818 292.918 219.914 292.918 222.011 292.918 224.108 292.918 226.205 292.918 228.302 292.918 230.399 292.918 232.496 292.918 234.593 292.918 236.69 292.918 238.787 292.918 240.884 292.918 242.98 292.918 245.077 292.918 247.174 292.918 249.271 292.918 251.368 292.918 253.423 292.876 253.465 289.06 255.562 287.466 256.401 284.908 257.659 282.014 259.043 280.63 259.756 276.604 261.727 276.352 261.853 271.697 263.95 271.152 264.201 266.958 266.046 265.7 266.634 262.429 268.143 260.248 269.234 258.361 270.24 254.796 272.337 254.796 272.337 251.902 274.434 249.554 276.531 249.386 276.741 247.834 278.628 246.576 280.725 245.738 282.822 245.318 284.919 245.108 287.016 245.276 289.112 245.654 291.209 246.283 293.306 247.289 295.403 248.547 297.5 249.386 298.591 250.183 299.597 252.196 301.694 254.461 303.791 254.796 304.084 257.145 305.888 259.955 307.985 260.248 308.194 263.184 310.082 265.7 311.675 266.623 312.178 270.481 314.275 271.152 314.653 274.885 316.372 276.604 317.169 280.043 318.469 282.014 319.224 286.879 320.566 287.466 320.734 292.918 321.824 292.918 322.663 292.918 324.76 292.918 326.857 292.918 328.954 292.918 331.051 292.918 333.148 292.918 335.245 292.918 337.341 292.918 339.438 292.918 340.067 291.324 340.067 287.466 340.067 285.872 340.067 282.014 340.067 280.462 340.067 276.604 340.067 276.436 340.067 272.746 340.067 271.404 339.438 271.152 339.354 267.084 337.341 265.7 336.712 262.89 335.245 260.248 333.944 258.78 333.148 254.796 331.093 254.712 331.051 250.728 328.954 249.386 328.241 246.702 326.857 243.934 325.431 242.676 324.76 238.65 322.663 238.482 322.621 234.666 320.566 233.03 319.685 230.808 318.469 227.578 316.708 226.991 316.372 223.049 314.275 222.168 313.772 219.107 312.178 216.716 310.878 215.123 310.082 211.39 307.985 211.264 307.901 207.909 305.888 205.812 304.42 205.016 303.791 202.667 301.694 200.738 299.597 200.36 299.094 199.27 297.5 198.012 295.403 196.921 293.306 195.957 291.209 195.118 289.112 194.95 288.483 194.489 287.016 194.07 284.919 193.902 282.822 194.028 280.725 194.447 278.628 194.95 277.034 195.076 276.531 195.873 274.434 196.796 272.337 197.97 270.24 199.396 268.143 200.36 266.969 201.157 266.046 203.254 263.95 205.687 261.853 205.812 261.727 208.454 259.756 211.264 257.869 211.6 257.659 215.207 255.562 216.716 254.723 219.191 253.465 222.168 251.997 223.468 251.368 227.578 249.313 227.746 249.271 231.604 247.174 233.03 246.336 235.001 245.077 237.895 242.98 238.482 242.519 240.286 240.884 242.173 238.787 243.347 236.69 243.934 234.593 243.85 232.496 243.725 230.399 243.766 228.302 243.934 227.505 244.144 226.205 244.731 224.108 245.528 222.011 246.534 219.914 247.751 217.818 249.093 215.679 249.386 215.343 250.644 213.582 252.196 211.485 253.664 209.388 254.796 207.752 255.132 207.291 256.6 205.194 257.984 203.097 259.326 201 260.248 199.449 260.584 198.903 261.926 196.806 263.352 194.71 264.861 192.613 265.7 191.564 266.497 190.516 268.049 188.419 269.475 186.322 270.775 184.225 271.152 183.596 271.949 182.128 272.914 180.031 273.626 177.934 274.172 175.837 274.507 173.74 274.801 171.644 275.052 169.547 275.346 167.45 275.765 165.353 276.394 163.256 276.604 162.795 277.275 161.159 278.324 159.062 279.54 156.965 280.672 154.868 281.804 152.771 282.014 152.352 282.937 150.674 283.985 148.578 284.908 146.481 285.705 144.384 286.334 142.287 286.753 140.19 287.005 138.093 287.089 135.996 286.921 133.899 286.543 131.802 285.914 129.705 285.076 127.608 284.027 125.512 282.895 123.415 282.014 121.905 281.721 121.318 280.63 119.221 279.498 117.124 278.407 115.027 277.275 112.93 276.604 111.672 276.185 110.833 275.136 108.736 274.046 106.639 272.788 104.542 271.362 102.445 271.152 102.152 269.768 100.349 268.007 98.252 266.036 96.155 265.7 95.819 263.897 94.058 261.59 91.961 260.248 90.829 259.116 89.822 256.474 87.725 254.796 86.467 253.664 85.628 250.686 83.531 249.386 82.651 247.499 81.434 244.144 79.338 243.934 79.254 240.537 77.241 238.482 76.108 236.637 75.144 233.03 73.424 232.15 73.047 227.578 71.285 226.572 70.95 222.168 69.608 219.442 68.853 216.716 68.14 211.6 66.756 211.264 66.672 205.812 65.162 204.093 64.659 200.36 63.695 195.873 62.562 194.95 62.353 189.498 61.094 186.856 60.465 184.046 59.836 178.594 58.62 177.714 58.368 173.184 57.152 170.417 56.272 167.732 55.433 164.461 54.175 162.281 53.42 158.925 52.078 156.829 51.365 152.677 49.981 151.377 49.603 145.967 48.052 145.254 47.884 140.515 46.877 135.063 46.081 131.791 45.787 129.611 45.619 124.159 45.493 118.749 45.493 113.297 45.284 107.845 44.697 102.393 43.774 101.848 43.69 96.941 42.935 91.531 41.677 91.279 41.593 86.079 39.874 85.114 39.496 81.214 37.399 80.627 37.022 78.278 35.302 75.426 33.206 75.175 33.038 70.813 31.109 69.723 30.731 64.313 30.941 63.684 31.109 58.861 32.87 57.603 33.206 53.409 34.506 47.957 34.883 42.505 35.051 37.095 35.009 31.643 34.841 26.191 34.548 20.739 34.38 15.287 34.296 9.877 34.296 4.425 34.254 -1.027 34.086 -6.479 33.625 -9.331 33.206 -11.931 32.744 -17.341 31.234 -17.676 31.109 -20.906 29.012 -22.793 27.041 -22.919 26.915 -23.967 24.818 -24.512 22.721 -24.806 20.624 -24.848 18.527 -24.47 16.43 -23.212 14.333 -22.919 14.04 -22.793 14.04 -21.451 14.04 -17.341 14.04 -16.628 14.04 -11.931 14.04 -11.176 14.04 -6.479 14.04 -5.724 14.04 -1.027 14.04 -.272 14.04 4.425 14.04 5.18 14.04 9.877 14.04 10.59 14.04 15.287 14.04 16.042 14.04 20.739 14.04 21.494 14.04 26.191 14.04 26.946 14.04 31.643 14.04 32.398 14.04 37.095 14.04 37.808 14.04 42.505 14.04 43.26 14.04 47.957 14.04 48.712 14.04 48.754 14.04 53.409 14.04 54.499 14.04 54.667 14.333 56.596 16.43 58.861 17.688 63.013 18.527 64.313 18.653 69.723 19.156 75.175 20.54 75.343 20.624 80.375 22.721 80.627 22.805 85.114 24.818 86.079 25.279 89.392 26.915 91.531 28.131 93.041 29.012 96.438 31.109 96.941 31.402 99.876 33.206 102.393 34.506 103.609 35.302 107.509 37.399 107.845 37.525 113.297 39.412 113.716 39.496 118.749 40.125 124.159 40.209 129.611 40.209 135.063 40.419 140.515 40.88 145.673 41.593 145.967 41.635 151.377 42.725 155.487 43.69 156.829 44.026 162.281 45.535 163.245 45.787 167.732 47.087 170.458 47.884 173.184 48.681 177.798 49.981 178.594 50.19 184.046 51.533 186.563 52.078 189.498 52.749 194.95 53.881 196.418 54.175 200.36 55.013 205.728 56.272 205.812 56.313 211.264 57.739 213.529 58.368 216.716 59.249 221.246 60.465 222.168 60.717 227.578 62.311 228.417 62.562 233.03 64.156 234.498 64.659 238.482 66.211 239.866 66.756 243.934 68.601 244.521 68.853 248.631 70.95 249.386 71.369 252.406 73.047 254.796 74.473 255.887 75.144 259.074 77.241 260.248 78.079 262.052 79.338 264.861 81.434 265.7 82.105 267.629 83.531 270.271 85.628 271.152 86.341 272.914 87.725 275.43 89.822 276.604 90.871 277.862 91.961 280.085 94.058 282.014 96.071 282.098 96.155 284.111 98.252 286.04 100.349 287.466 101.984 287.885 102.445 289.689 104.542 291.492 106.639 292.918 108.359 292.918 108.736 292.918 110.833 292.918 112.93 292.918 115.027 292.918 117.124 292.918 119.221 292.918 121.318 292.918 123.415 292.918 125.512 292.918 127.608 292.918 129.705 292.918 131.802 292.918 133.899 292.918 135.996 292.918 138.093 306.087 166.905 292.918 196.806" fill="#e3e798"/>
          <path d="M58.861,14.04h-4.362l.168.294,1.929,2.097,2.265,1.258,4.152.839,1.258.126,5.452.503,5.452,1.384.168.042,5.033,2.097.252.126,4.487,1.971.965.461,3.313,1.636,2.097,1.216,1.552.881,3.397,2.097.545.294,2.936,1.803,2.516,1.3,1.216.797,3.9,2.097.336.126,5.452,1.887.461.084,4.991.629,5.452.084h5.452l5.452.21,5.452.461,5.158.713.294.042,5.452,1.09,4.11.965,1.342.336,5.452,1.51.965.294,4.445,1.3,2.726.797,2.726.797,4.655,1.3.797.21,5.452,1.342,2.516.545,2.936.629,5.452,1.132,1.468.294,3.984.839,5.368,1.258h.084l5.452,1.468,2.265.629,3.187.881,4.529,1.216.923.252,5.452,1.594.797.252,4.613,1.552,1.468.545,3.984,1.51,1.342.587,4.068,1.803.587.294,4.11,2.097.713.377,3.02,1.719,2.432,1.426,1.09.671,3.187,2.097,1.174.839,1.803,1.258,2.81,2.097.839.629,1.929,1.468,2.642,2.097.881.713,1.761,1.384,2.516,2.097,1.132,1.007,1.258,1.09,2.223,2.097,1.929,2.013.084.084,2.013,2.097,1.887,2.097,1.426,1.678.419.419,1.845,2.097,1.803,2.097,1.426,1.719v-19.753l-.965-.839-2.642-2.097-1.845-1.3-1.09-.797-3.103-2.097-1.216-.797-1.887-1.3-3.145-2.097-.419-.252-2.6-1.845-2.852-1.929-.21-.168-3.061-2.097-2.181-1.426-1.09-.671-3.523-2.097-.839-.461-3.145-1.636-2.307-1.132-2.097-.965-3.355-1.51-1.426-.587-4.026-1.678-1.09-.419-4.32-1.594-1.426-.503-3.984-1.384-2.39-.713-3.061-.965-4.152-1.132-1.258-.377-5.452-1.51-.881-.252-4.571-1.258-3.397-.839-2.055-.503-5.452-1.174-2.181-.419-3.271-.671-5.452-1.132-1.174-.252-4.278-1.048-3.691-1.048-1.761-.503-5.368-1.594-.084-.042-5.452-1.468-2.726-.629-2.726-.587-5.452-1.007-3.523-.503-1.929-.294-5.452-.671-5.452-.377-5.452-.168h-5.452l-5.452.084-5.452-.503-.503-.168-4.278-2.097-.671-.461-1.636-1.636-1.887-2.097-1.803-2.097-.126-.126-2.139-1.971-2.6-2.097-.671-.503-3.061-1.594-2.39-1.132-2.349-.965-3.103-1.384-1.552-.713-.545-.294h-30.531v.084ZM249.386,276.741l-1.552,1.887-1.258,2.097-.839,2.097-.419,2.097-.168,2.097.126,2.097.377,2.097.671,2.097.965,2.097,1.258,2.097.839,1.09.839,1.007,2.013,2.097,2.265,2.097.336.294,2.307,1.803,2.852,2.097.294.21,2.894,1.887,2.516,1.552.923.545,3.858,2.097.671.336,3.733,1.761,1.719.797,3.481,1.3,1.971.713,4.823,1.384.629.168,5.452,1.048v-68.359l-.084.042-3.774,2.097-1.594.839-2.558,1.258-2.894,1.426-1.384.671-4.068,1.971-.252.126-4.613,2.097-.587.252-4.152,1.845-1.258.587-3.271,1.51-2.181,1.132-1.929.965-3.523,2.097h-.042l-2.894,2.097-2.349,2.097-.168.21Z" fill="#abd2a1"/>
          <polygon points="91.531 14.04 90.734 14.04 89.434 14.04 89.979 14.333 91.531 15.046 94.634 16.43 96.941 17.395 99.331 18.527 102.393 20.121 103.064 20.624 105.706 22.721 107.845 24.692 107.971 24.818 109.774 26.915 111.661 29.012 113.297 30.647 113.968 31.109 118.245 33.206 118.749 33.373 124.159 33.877 129.611 33.793 135.063 33.793 140.515 33.96 145.967 34.338 151.377 35.009 153.306 35.302 156.829 35.806 162.281 36.812 165.006 37.399 167.732 38.028 173.184 39.496 173.226 39.496 178.594 41.09 180.356 41.593 184.046 42.642 188.324 43.69 189.498 43.942 194.95 45.116 198.222 45.787 200.36 46.206 205.812 47.381 207.867 47.884 211.264 48.723 215.836 49.981 216.716 50.232 222.168 51.742 223.426 52.078 227.578 53.252 230.64 54.175 233.03 54.93 237.056 56.272 238.482 56.775 242.802 58.368 243.934 58.788 247.96 60.465 249.386 61.094 252.741 62.562 254.796 63.527 257.145 64.659 260.248 66.295 261.087 66.756 264.61 68.853 265.7 69.566 267.881 70.95 270.9 73.047 271.152 73.215 274.004 75.144 276.604 76.989 277.023 77.241 280.169 79.338 282.014 80.68 283.272 81.434 286.376 83.531 287.466 84.328 289.311 85.628 291.995 87.725 292.918 88.564 292.918 87.725 292.918 85.628 292.918 83.531 292.918 81.434 292.918 79.338 292.918 77.241 292.918 75.144 292.918 73.047 292.918 71.285 292.373 70.95 288.473 68.853 287.466 68.35 284.866 66.756 282.014 65.162 281.259 64.659 277.694 62.562 276.604 61.933 274.172 60.465 271.152 58.704 270.565 58.368 266.874 56.272 265.7 55.642 262.932 54.175 260.248 52.833 258.738 52.078 254.796 50.19 254.377 49.981 250.015 47.884 249.386 47.59 245.402 45.787 243.934 45.116 240.328 43.69 238.482 42.935 234.834 41.593 233.03 40.88 229.256 39.496 227.578 38.825 223.51 37.399 222.168 36.896 217.052 35.302 216.716 35.219 211.264 33.709 209.125 33.206 205.812 32.409 200.36 31.276 199.522 31.109 194.95 30.228 189.498 29.221 188.366 29.012 184.046 28.215 178.594 27.208 177.001 26.915 173.184 26.286 167.732 25.489 162.281 24.902 161.4 24.818 156.829 24.398 151.377 23.937 145.967 23.518 140.515 23.182 135.063 22.847 132.924 22.721 129.611 22.511 124.159 21.631 122.607 20.624 119.965 18.527 118.749 17.395 118.036 16.43 116.526 14.333 116.274 14.04 113.464 14.04 113.297 14.04 108.6 14.04 107.845 14.04 103.148 14.04 102.393 14.04 97.696 14.04 96.941 14.04 92.244 14.04 91.531 14.04" fill="#6bbea3"/>
          <polygon points="116.819 14.04 116.274 14.04 116.526 14.333 118.036 16.43 118.749 17.395 119.965 18.527 122.607 20.624 124.159 21.631 129.611 22.511 132.924 22.721 135.063 22.847 140.515 23.182 145.967 23.518 151.377 23.937 156.829 24.398 161.4 24.818 162.281 24.902 167.732 25.489 173.184 26.286 177.001 26.915 178.594 27.208 184.046 28.215 188.366 29.012 189.498 29.221 194.95 30.228 199.522 31.109 200.36 31.276 205.812 32.409 209.125 33.206 211.264 33.709 216.716 35.219 217.052 35.302 222.168 36.896 223.51 37.399 227.578 38.825 229.256 39.496 233.03 40.88 234.834 41.593 238.482 42.935 240.328 43.69 243.934 45.116 245.402 45.787 249.386 47.59 250.015 47.884 254.377 49.981 254.796 50.19 258.738 52.078 260.248 52.833 262.932 54.175 265.7 55.642 266.874 56.272 270.565 58.368 271.152 58.704 274.172 60.465 276.604 61.933 277.694 62.562 281.259 64.659 282.014 65.162 284.866 66.756 287.466 68.35 288.473 68.853 292.373 70.95 292.918 71.285 292.918 70.95 292.918 68.853 292.918 66.756 292.918 64.659 292.918 62.562 292.918 60.465 292.918 58.368 292.918 56.272 292.918 54.175 292.918 52.078 292.918 49.981 292.918 47.884 292.918 45.787 292.918 43.69 292.918 41.593 292.918 39.496 292.918 37.399 292.918 35.302 292.918 33.206 292.918 31.109 292.918 29.012 292.918 26.915 292.918 24.818 292.918 22.721 292.918 20.624 292.918 18.527 292.918 16.43 292.918 14.333 292.918 14.04 288.347 14.04 288.179 14.04 287.466 14.04 282.769 14.04 282.014 14.04 277.317 14.04 276.604 14.04 271.907 14.04 271.152 14.04 266.455 14.04 265.7 14.04 261.003 14.04 260.248 14.04 255.551 14.04 254.796 14.04 250.099 14.04 249.386 14.04 244.689 14.04 243.934 14.04 239.237 14.04 238.482 14.04 233.785 14.04 233.03 14.04 228.333 14.04 227.578 14.04 222.881 14.04 222.168 14.04 217.471 14.04 216.716 14.04 212.019 14.04 211.264 14.04 206.567 14.04 205.812 14.04 201.115 14.04 200.36 14.04 195.663 14.04 194.95 14.04 190.253 14.04 189.498 14.04 184.801 14.04 184.046 14.04 179.349 14.04 178.594 14.04 173.897 14.04 173.184 14.04 168.445 14.04 167.732 14.04 163.035 14.04 162.281 14.04 157.583 14.04 156.829 14.04 152.131 14.04 151.377 14.04 146.679 14.04 145.967 14.04 141.269 14.04 140.515 14.04 135.818 14.04 135.063 14.04 130.366 14.04 129.611 14.04 124.914 14.04 124.159 14.04 119.462 14.04 118.749 14.04 116.819 14.04" fill="#3387bd"/>
          <g display="none">
            <path d="M174.872,254.342l1.384-.21,1.132.21M200.79,254.342l.629-.545.839-.755M202.299,253.042l1.258-1.09,2.097-1.929,2.097-1.929.713-.461M221.004,247.59l1.426.923,2.097,1.636,2.097,1.719,2.097.755,2.097.042.629-.126M208.422,247.59l1.384-.965,2.097-.881,2.097-.461,2.097.042,2.097.713,2.097,1.132.713.461M38.195,138.718l-.377,1.384-2.097,2.349-2.097-1.845-.881-1.887M32.743,138.718l-1.216-3.523-.503-1.929M38.74,133.266l-.545,5.452M31.024,133.266l-1.132-5.452M38.74,127.814v5.452M29.891,127.814l-.419-5.452M37.902,122.404l.839,5.452M29.472,122.404l2.013-5.452M34.337,116.952l1.342,1.132,2.097,4.11.084.21M31.485,116.952l.042-.042,2.097-.377.755.461M40.963,254.342l1.048-.294,2.097-.294,2.097.21.755.336M131.382,254.342l.126-1.3M131.466,253.042l.713-4.949.084-.503M132.263,247.59l1.258-5.452M133.563,242.138l.755-2.432,1.09-3.02M135.408,236.686l1.007-2.349,1.719-3.103M179.611,231.276l.839.336,2.097,1.132,2.097,1.216,2.097.881,2.097.755,2.097,1.007,2.097-.21,2.097-1.132,2.097-1.594,2.097-1.51,1.3-.839M138.092,231.276l.377-.587,2.097-2.307,2.097-1.636,1.468-.881M155.496,225.824l1.887.713,2.097.671,2.097.294,2.097.042,2.097.21,2.097.545,2.097.503,2.097.419,2.097.461,2.097.503,2.097.587,1.258.545M200.622,231.276l.797-.629,2.097-1.719,2.097-1.636,2.097-1.384.126-.042M144.173,225.824l.629-.377,2.097-.839,2.097-.294,2.097.252,2.097.503,2.097.671.21.084M207.835,225.824l1.971-.881,2.097-.671,2.097-.629,2.097-.545,2.097-.294,2.097-.126,2.097-.042,2.097.084,2.097-.042,2.097-.797,2.097-1.258.545-.294M231.363,220.372l.042-.042M44.612,187.702l-.503.545-2.097,1.845-2.097,1.3-2.097.797-2.097.377-2.097-.21-2.097-.881-2.097-1.719-1.636-2.013M27.794,187.702l-.461-.587-2.097-3.02-1.216-1.887M49.183,182.25l-.881,1.216-2.097,2.6-1.594,1.636M24.02,182.25l-.881-1.342-2.097-3.145-.629-.965M52.035,176.84l-1.636,3.397-1.216,2.055M20.413,176.84l-1.468-2.181-2.097-3.103-.126-.168M53.712,171.388l-1.216,4.11-.461,1.342M16.723,171.388l-1.971-2.936-1.761-2.474M54.803,165.936l-.21,1.258-.881,4.152M12.99,165.936l-.336-.503-2.097-2.642-2.097-2.181-.126-.126M55.432,160.484l-.587,5.452M8.335,160.484l-1.971-1.594-2.097-1.09-2.097-.755-2.097-.629-2.097-1.007-.503-.336M55.683,155.032l-.252,5.452M-2.527,155.032l-1.594-1.174-2.097-1.719-2.097-1.426-2.097-1.132h0M55.683,149.622l-.042,5.452M-10.453,149.622l-2.097-1.048-2.097-.965-2.097-.881-2.097-.881-2.097-.755-2.097-.629-.671-.252M55.516,144.17l.168,5.452M-23.664,144.17l-1.426-.587-2.097-1.51-2.097-2.223-.797-1.09M55.222,138.718l.336,5.452M-30.08,138.718l-1.3-2.097-1.636-3.355M54.803,133.266l.419,5.452M-33.016,133.266l-.461-1.132-1.426-4.278M54.509,127.814l.084,1.426.21,4.026M-34.945,127.814l-.671-2.265-.755-3.187M54.383,122.404l.168,5.452M-36.371,122.404l-1.09-5.452M54.216,116.952l.168,5.452M-37.503,116.952l-.21-1.51-.503-3.942M54.09,111.5l.126,5.452M-38.216,111.5l-.294-5.452M53.922,106.048l.168,5.452M-38.51,106.048l.336-5.452M53.586,100.596l.294,5.452M-38.174,100.596l.461-2.726.503-2.726M53.125,95.186l.503,5.452M-37.168,95.186l1.468-5.452M52.328,89.734l.168.923.629,4.487M-35.7,89.734l.084-.336,1.803-5.116M50.986,84.282l1.342,5.452M-33.813,84.282l.294-.797,2.097-4.278.21-.336M48.302,78.83h0l2.097,3.984.587,1.468M-31.171,78.83l1.887-2.307,2.097-2.013,1.384-1.132M43.186,73.378l.923.797,2.097,2.139,2.097,2.516M-25.803,73.378l.713-.587,2.097-1.132,2.097-.671,2.097-.084,2.097-.461,2.097-1.594.587-.965M35.008,67.968l.713.419,2.097,1.384,2.097,1.384,2.097,1.426,1.174.839M-14.018,67.968l1.51-1.803,2.097-2.558.965-1.048M11.145,62.516l1.51.881,2.097.755,2.097.377,2.097.084,2.097.21,2.097.294,2.097.294,2.097.168,2.097.294,2.097.545,2.097.881,1.384.713M-9.489,62.516l1.132-1.048,2.097-1.761,2.097-1.216,2.097-.503,2.097.084,2.097.294,2.097.545,2.097.839,2.097,1.174,2.097,1.3.587.336M7.203,254.342l.126-1.3M100.683,253.042l.042.084,1.174,1.216M113.768,254.342l.671-1.3M7.329,253.042l.461-5.452M97.202,247.59l1.426,2.516,2.055,2.936M114.439,253.042l1.007-1.845,1.426-3.607M7.79,247.59l.377-5.452M94.938,242.138l1.594,4.152.671,1.3M116.871,247.59l.671-1.51,1.384-3.942M8.167,242.138l.252-5.452M93.26,236.686l1.174,4.026.503,1.426M118.926,242.138l.713-1.719,1.342-3.733M8.419,236.686v-5.452M91.918,231.276l.461,1.803.923,3.649M120.981,236.686l.755-1.845,1.342-3.607M8.419,231.276l-.377-5.452M90.45,225.824l1.468,5.452M123.078,231.276l.755-1.887,1.384-3.565M8,225.824l-.797-5.452M88.773,220.372l1.51,4.739.21.671M125.217,225.824l.713-1.594,1.594-3.816M7.203,220.372l-.839-3.649-.503-1.761M87.179,214.92l.965,3.271.587,2.181M127.524,220.372l.503-1.174,1.845-4.278M5.861,214.92l-1.594-4.194-.629-1.258M85.711,209.468l.377,1.216,1.132,4.236M129.83,214.92l.252-.545,2.097-3.816.755-1.048M3.638,209.468l-1.468-2.39-1.929-3.061M84.201,204.058l1.51,5.452M132.975,209.468l1.342-1.594,2.097-1.719,2.097-1.174,2.097-.839.294-.084M.241,204.058l-.168-.21-2.097-3.397-1.048-1.803M82.985,198.606l.965,4.362.252,1.09M140.86,204.058l1.803-.629,2.097-.755,2.097-.755,2.097-.713,2.097-.839,2.097-.923,1.719-.839M-3.072,198.606l-1.048-1.719-1.971-3.691M82.146,193.154l.839,5.452M154.867,198.606l.377-.21,2.097-1.048,2.097-.923,2.097-.839,2.097-.755,2.097-.713,2.097-.713.545-.21M-6.092,193.154l-.126-.252-2.097-4.613-.252-.587M81.475,187.702l.419,3.061.294,2.39M168.413,193.154l1.552-.503,2.097-.965,2.097-1.258,2.097-1.51,1.594-1.216M-8.566,187.702l-1.845-4.194-.503-1.258M80.72,182.25l.713,5.452M177.849,187.702l.503-.377,2.097-1.426,2.097-1.3,2.097-1.258,2.097-1.09.042-.042M196.805,182.25l.419.126,2.097.755,2.097.755,2.097.755,2.097.713,2.097.503,2.097.461,2.097.294,2.097.084,2.097-.126,2.097-.294,2.097-.377,2.097-.336,2.097-.294,2.097-.294,2.097-.377,2.097-.336.629-.084M-10.956,182.25l-1.594-3.439-.839-2.013M80.133,176.84l.587,5.452M186.824,182.25l2.055-.671,2.097-.336h2.097l2.097.419,1.678.587M-13.347,176.84l-1.258-2.558-1.426-2.852M79.756,171.388l.042.377.377,5.075M-16.031,171.388l-.671-1.132-2.097-3.02-1.174-1.3M79.42,165.936l.294,5.452M-19.973,165.936l-.923-.839-2.097-1.594-2.097-1.51-1.803-1.468M79.043,160.484l.377,5.452M-26.935,160.484l-.294-.21-2.097-1.929-2.097-2.39-.671-.923M78.372,155.032l.671,5.452M-32.093,155.032l-1.426-1.929-2.055-3.481M77.533,149.622l.126.839.671,4.613M-35.532,149.622l-.042-.084-2.097-4.571-.294-.755M76.694,144.17l.839,5.452M-38.007,144.17l-1.803-5.326-.042-.126M76.149,138.718l.587,5.452M-39.852,138.718l-1.384-5.452M76.149,133.266v5.452M-41.194,133.266l-.671-3.397-.377-2.055M76.694,127.814l-.545,5.452M-42.284,127.814l-.923-5.452M77.491,122.404l-.797,5.452M-43.207,122.404l-.797-5.452h0M78.833,116.952l-1.132,4.697-.168.755M-44.004,116.952l-.713-5.452M80.679,111.5l-.923,2.768-.965,2.684M-44.717,111.5l-.377-5.452M82.524,106.048l-.671,2.181-1.174,3.271M-45.052,106.048l.168-5.452M83.74,100.596l-1.216,5.452M-44.926,100.596l.755-5.452M84.327,95.186l-.377,3.774-.21,1.678M-44.172,95.186l.168-.797,1.09-4.613M84.411,89.734l-.084,5.452M-42.913,89.734l1.007-3.439.587-2.013M83.908,84.282l.042.503.419,4.907M-41.32,84.282l1.51-4.781.21-.671M82.775,78.83l1.132,5.452M-39.6,78.83l1.887-5.2.084-.252M81.224,73.378l.629,2.139.923,3.313M-37.587,73.378l2.013-4.571.419-.839M78.833,67.968l.923,2.055,1.468,3.397M-35.197,67.968l1.678-3.355,1.132-2.055M75.436,62.516l.126.168,2.097,3.313,1.174,1.971M-32.345,62.516l.965-1.845,2.013-3.565M71.242,57.064l.126.168,2.097,2.642,1.971,2.642M-29.367,57.064l.084-.126,2.097-3.565,1.132-1.719M66.126,51.612l1.048,1.048,2.097,2.223,1.971,2.181M-26.096,51.612l.965-1.719,2.097-3.355.252-.377M58.913,46.16l1.971,1.216,2.097,1.51,2.097,1.719,1.048.965M-22.741,46.16l1.845-3.02,1.51-2.39M42.934,40.75l1.174.881,2.097,1.174,2.097.755,2.097.419,2.097.294,2.097.377,2.097.587,2.097.923.126.084M-19.386,40.75l.587-.965,2.097-3.691.419-.755M38.615,35.298l1.3,2.139,2.097,2.474.923.839M-16.283,35.298l1.678-2.81,1.468-2.6M36.098,29.846l1.678,3.984.797,1.468M-13.137,29.846l.629-1.132,2.097-3.691.377-.629M34.085,24.395l1.636,4.445.419.965M-10.076,24.395l1.719-3.02,1.342-2.432M32.617,18.985l1.007,3.774.461,1.678M-6.972,18.985l.755-1.845,1.51-3.607M31.191,13.533l.336,1.258,1.09,4.194M-4.708,13.533l.587-1.719,1.426-3.732M29.472,8.081l1.678,5.452M-2.695,8.081l.671-1.803L-.472,2.629M26.83,2.629l.461.881,2.097,4.404.084.168M-.472,2.629L.073,1.58,2.17-1.649l.965-1.174M21.923-2.823l1.174,1.09,2.097,2.307,1.636,2.055M3.093-2.823l1.132-.965,2.097-1.3,2.097-.881,2.097-.461,2.097-.042,2.097.294,2.097.587,2.097.923,2.097,1.216.923.629M-18.421,254.342l.713-1.3M-17.667,253.042l.965-2.39,1.007-3.061M-15.737,247.59l.881-5.452M-14.815,242.138l.042-5.452M-14.773,236.686l-.545-5.452M-15.318,231.276l-.923-5.452M-16.283,225.824l-.461-2.181-.629-3.271M-17.373,220.372l-1.09-5.452M-18.463,214.92l-.336-1.594-.839-3.858M103.619,209.468l1.3,2.265,2.097,2.013,2.097.713,2.097-.587,2.097-1.468,2.097-2.265.503-.671M-19.638,209.468l-1.258-5.158-.084-.294" fill="none" stroke="#000" stroke-linejoin="round" stroke-width=".5"/>
            <path d="M101.438,204.058l1.426,3.816.797,1.636M115.907,209.468l1.594-2.307,1.929-3.145M-20.98,204.058l-1.51-5.452M99.76,198.606l.965,3.439.671,2.013M119.471,204.058l.168-.252,2.097-3.816.713-1.384M-22.531,198.606l-.503-1.552-1.342-3.9M98.502,193.154l.168.755,1.132,4.697M122.449,198.606l1.384-2.768,1.384-2.684M-24.335,193.154l-.755-1.887-1.552-3.565M97.622,187.702l.839,5.452M125.217,193.154l.713-1.468,2.097-3.691.168-.252M-26.683,187.702l-.545-1.007-2.097-4.068-.168-.336M97.118,182.25l.503,5.452M128.195,187.702l1.929-2.642,2.097-1.971,1.3-.797M-29.493,182.25l-1.929-3.355-1.132-2.097M96.993,176.84l.126,5.452M133.521,182.25l.797-.461,2.097-.797,2.097-.503,2.097-.419,2.097-.419,2.097-.503,2.097-.629,2.097-.797,1.929-.923M-32.513,176.84l-.965-1.594-2.097-3.774-.042-.084M97.328,171.388l-.336,5.452M150.925,176.84l.168-.084,2.097-1.09,2.097-1.09,2.097-1.048,2.097-1.048,1.887-1.048M-35.616,171.388l-2.055-3.733-.797-1.678M98.167,165.936l-.797,5.452M161.368,171.388l.21-.126,2.097-1.258,2.097-1.216,2.097-1.342,2.055-1.51M-38.51,165.936l-1.3-2.642-1.174-2.81M99.299,160.484l-.629,2.852-.503,2.6M169.923,165.936h0l2.139-1.761,2.097-1.761,2.097-1.845.042-.042M-40.984,160.484l-.923-2.307-1.09-3.145M100.599,155.032l-1.3,5.452M176.298,160.484l2.055-1.887,2.097-1.803,2.097-1.719h0M-42.997,155.032l-1.007-3.313-.587-2.097M101.899,149.622l-1.174,4.865-.126.545M182.588,155.032l2.097-1.719,2.097-1.594,2.097-1.3,1.845-.881M201.586,149.622l1.929.839,2.097,1.132,2.097,1.048,2.097,1.09,2.097.839,2.097.294,2.097-.294,2.097-.755,2.097-1.216,2.097-1.636,1.426-1.3M-44.549,149.622l-1.258-5.452M102.948,144.17l-.084.545-.923,4.907M190.682,149.622l.252-.126,2.097-.713,2.097-.294,2.097.042,2.097.377,2.097.713.168.084M223.814,149.622l.671-1.426,1.468-3.984M-45.807,144.17l-.294-1.384-.755-4.068M103.493,138.718l-.545,5.452M225.994,144.17l-.839-5.452M-46.856,138.718l-.923-5.452M103.577,133.266l-.084,5.452M225.156,138.718l-.629-1.971-.923-3.481M-47.778,133.266l-.419-2.558-.461-2.894M103.241,127.814l.336,5.452M223.604,133.266l-1.174-5.242-.042-.168M-48.659,127.814l-.839-5.452M102.528,122.404l.294,2.474.419,2.978M222.388,127.814l-.839-5.452M-49.498,122.404l-.797-5.41v-.042M101.69,116.952l.839,5.452M221.507,122.404l-.377-5.452M-50.294,116.952l-.713-5.452M100.851,111.5l.839,5.452M221.13,116.952l.042-5.452M-51.007,111.5l-.461-5.452M99.928,106.048l.797,4.823.126.629M221.172,111.5l.377-5.452M-51.469,106.048l-.084-5.452M99.131,100.596l.797,5.452M221.549,106.048l.755-5.452M-51.553,100.596l.377-5.452M98.586,95.186l.084.671.461,4.781M222.304,100.596l.084-.419,1.09-4.991M-51.175,95.186l.881-5.452M98.251,89.734l.294,5.452M223.478,95.186l1.007-3.774.419-1.678M-50.294,89.734l.042-.084,1.342-5.368M98.041,84.282l.252,5.452M224.946,89.734l1.468-5.452M-48.952,84.282l.755-2.474.923-2.978M97.747,78.83l.294,5.452M226.414,84.282l.21-.839,1.048-4.613M-47.233,78.83l1.174-3.103.923-2.307M97.454,73.378l.294,5.452M227.672,78.83l.923-5.452M-45.178,73.378l1.174-2.726,1.132-2.684M97.16,67.968l.336,5.452M228.595,73.378l.126-.923.545-4.529M-42.871,67.968l.965-2.139,1.51-3.313M96.783,62.516l.377,5.452M229.266,67.968l.545-5.452M-40.397,62.516l.587-1.342,1.803-4.11M96.28,57.064l.252,2.642.21,2.81M229.811,62.516l.545-5.452M-37.965,57.064l.294-.713,1.887-4.739M95.357,51.612l.923,5.452M230.356,57.064l.461-3.774.21-1.678M-35.826,51.612l.21-.587,1.719-4.823M93.26,46.16l1.174,2.516.923,2.936M230.985,51.612l.419-2.768M-33.855,46.16l.377-1.174,1.468-4.278M88.269,40.75l1.971,1.719,2.097,2.349.923,1.426M-32.051,40.75l.629-1.887,1.342-3.565M80.846,35.298l1.007.755,2.097,1.51,2.097,1.51,2.097,1.552.126.084M-30.038,35.298l.755-1.845,1.552-3.607M74.262,29.846l1.3,1.174,2.097,1.803,2.097,1.678,1.09.797M-27.774,29.846l.545-1.426,1.678-4.026M68.433,24.395l.839.797,2.097,1.971,2.097,1.971.797.713M-25.509,24.395l.419-1.048,1.845-4.404M62.561,18.985l.419.336,2.097,1.845,2.097,2.013,1.258,1.258M-23.286,18.985l.252-.755,1.636-4.697M54.845,13.533l1.887,1.216,2.097,1.342,2.097,1.468,1.678,1.426M-21.399,13.533l.461-1.636,1.09-3.774M49.057,8.081l1.342,1.678,2.097,1.971,2.097,1.636.21.168M-19.847,8.081l1.007-3.481.545-1.929M45.954,2.629l.252.545,2.097,3.858.755,1.048M-18.254,2.629l1.552-4.571.294-.881M43.647-2.823l.461,1.174,1.845,4.278M-16.408-2.823l1.803-4.11.587-1.3M41.089-8.233l.923,1.929,1.636,3.523M-14.06-8.233l1.51-2.768,1.552-2.684M37.398-13.685l.419.545,2.097,3.02,1.174,1.845M-10.998-13.685l.545-.797,2.097-2.768,1.594-1.887M32.324-19.137l1.3,1.174,2.097,2.265,1.678,2.055M-6.721-19.137l.503-.503,2.097-1.887,2.097-1.51L.073-24.212l.797-.336M22.888-24.589l.252.084,2.097.923,2.097,1.048,2.097,1.258,2.097,1.468.797.671M.87-24.589l1.3-.503,2.097-.587,2.097-.503,2.097-.377,2.097-.252,2.097-.042,2.097.168,2.097.336,2.097.503,2.097.629,1.845.671M-60.444,254.342l.461-1.3M-59.982,253.042l1.3-3.816.629-1.636M-58.053,247.59l1.468-4.194.587-1.258M-55.998,242.138l1.51-4.152.797-1.3M-53.691,236.686l1.3-2.307,2.097-2.097,1.678-1.048M-48.617,231.276l.419-.294,2.097-1.678,2.097-3.061.168-.377M-43.836,225.824l1.384-5.452M-42.41,220.372l.545-5.326v-.126M-41.907,214.92l.042-5.452M-41.865,209.468l-.042-.419-.377-5.033M-42.284,204.058l-.881-5.452M-43.165,198.606l-.839-3.816-.377-1.636M-44.339,193.154l-1.426-5.452M-45.765,187.702l-.294-1.09-1.174-4.362M-47.233,182.25l-.923-3.481-.503-1.929M-48.659,176.84l-1.3-5.452M-49.959,171.388l-.336-1.468-.797-3.984M-51.091,165.936l-1.048-5.452M-52.14,160.484l-.252-1.342-.713-4.068M-53.104,155.032l-.671-5.452M-53.775,149.622l-.461-5.452M143.083,144.17l1.719.377,2.097.168,2.097.042,2.097-.042,2.097-.252,1.174-.294M-54.195,144.17l-.252-2.936-.252-2.516M133.94,138.718l.377.294,2.097,1.216,2.097,1.3,2.097,1.426,2.097,1.09.377.084M154.364,144.17l.923-.252,2.097-1.048,2.097-1.426,2.097-1.636,1.3-1.048M-54.74,138.718l-.755-5.452M130.04,133.266l.084.168,2.097,3.523,1.719,1.761M162.835,138.718l.797-.797,2.097-2.097,2.097-2.223.336-.377M-55.453,133.266l-.797-5.452M128.32,127.814l1.719,5.452M168.204,133.266l1.761-2.181,2.097-2.6.503-.629M-56.25,127.814l-.336-2.978-.252-2.432M127.104,122.404l.881,4.152.294,1.3M172.565,127.814l1.594-2.307,2.055-3.103M-56.837,122.404l-.503-5.452M126.223,116.952l.923,5.452M176.214,122.404l.042-.084,2.097-4.026.671-1.342M-57.298,116.952l-.294-5.452M125.51,111.5l.377,3.145.294,2.307M179.024,116.952l1.426-3.942.503-1.51M-57.592,111.5l-.21-5.452M124.001,106.048l1.552,5.452M180.953,111.5l1.342-5.452M-57.801,106.048l-.126-5.452M120.855,100.596l.839,1.468,2.097,3.691.168.294M182.295,106.048l.252-1.384.713-4.068M-57.927,100.596l.042-5.452M117.333,95.186l.21.336,2.097,3.229,1.258,1.887M183.259,100.596l.839-5.452M-57.885,95.186l.336-5.452M115.152,89.734l.294.797,1.887,4.613M184.098,95.186l.545-3.145.419-2.307M-57.55,89.734l.797-5.452M114.313,84.282l.839,5.452M185.063,89.734l1.384-5.452M-56.711,84.282l.168-.671,1.3-4.781M113.81,78.83l.503,5.452M186.447,84.282l.294-.881,1.803-4.571M-55.285,78.83l.797-2.516,1.09-2.936M113.181,73.378l.126,1.3.503,4.152M188.586,78.83l.294-.587,2.097-3.313,1.3-1.552M-53.398,73.378l1.007-2.349,1.384-3.103M112.719,67.968l.503,5.452M192.234,73.378l.797-.797,2.097-1.719,2.097-1.552,1.887-1.384M-50.966,67.968l.713-1.426,1.803-3.984M112.51,62.516l.168,5.452M199.112,67.968l.21-.168,2.097-1.594,2.097-1.971,1.426-1.719M-48.491,62.516l.294-.713,1.929-4.739M112.761,57.064l-.21,5.452M204.941,62.516l.671-.881,2.097-3.607.419-.965M-46.268,57.064l.168-.503,1.761-4.949M113.181,51.612l-.461,5.452M208.171,57.064l1.678-3.858.587-1.594M-44.339,51.612l.336-1.174,1.3-4.278M113.348,46.16l-.042.839-.126,4.613M210.393,51.612l1.51-4.613.252-.839M-42.704,46.16l.797-3.271.545-2.181M112.803,40.75l.503,5.2.042.252M212.155,46.16l1.342-5.452M-41.362,40.75l1.3-5.452M111.587,35.298l1.216,5.452M213.497,40.75l.503-2.097.755-3.355" fill="none" stroke="#000" stroke-linejoin="round" stroke-width=".5"/>
            <path d="M-40.02,35.298l.252-.839,1.342-4.613M110.161,29.846l1.048,4.11.336,1.342M214.755,35.298l1.342-5.284.042-.168M-38.468,29.846l.755-2.684.839-2.768M108.693,24.395l.419,1.594,1.048,3.858M216.139,29.846l1.552-5.452M-36.874,24.395l1.258-4.362.336-1.09M107.058,18.985l1.636,5.452M217.733,24.395l.503-1.468,1.258-3.942M-35.281,18.985l1.594-5.452M104.667,13.533l.252.503,2.097,4.907.042.042M219.494,18.985l.839-2.349,1.09-3.103M-33.645,13.533l.168-.545,1.426-4.865M100.851,8.081l2.013,2.516,1.845,2.936M221.381,13.533l1.007-2.6,1.09-2.81M-32.093,8.081l.671-2.432.839-3.02M92.589,2.629l1.887.755,2.097,1.132,2.097,1.51,2.097,1.887.084.126M223.478,8.081l1.007-2.558,1.132-2.894M-30.542,2.629l1.258-3.9.503-1.552M80.553-2.823l1.342,1.048,2.097,1.258,2.097.923,2.097.755,2.097.671,2.097.671.21.084M225.659,2.629l.965-2.349,1.216-3.061M-28.822-2.823l1.594-4.026.587-1.426M75.478-8.233l.084.084,2.097,2.474,2.097,2.223.755.671M227.84-2.823l.881-2.097,1.384-3.313M-26.641-8.233l1.51-3.02,1.258-2.432M70.781-13.685l.587.587,2.097,2.39,2.013,2.432M230.062-8.233l.713-1.678.629-1.426M-23.831-13.685l.839-1.426,2.097-3.565.252-.419M64.784-19.137l.294.21,2.097,1.719,2.097,1.971,1.51,1.51M-20.686-19.137l1.845-2.978,1.51-2.474M56.69-24.589h0l2.097,1.468,2.097,1.342,2.097,1.342,1.803,1.3M-17.289-24.589l.587-.881,2.097-2.978,1.216-1.594M50.399-30.041h0l2.097,2.097,2.097,1.803,2.097,1.552M-13.389-30.041l.881-.965,2.097-2.139,2.097-1.887.545-.419M45.199-35.451l1.007,1.048,2.097,2.223,2.097,2.181M-7.811-35.451l1.552-1.216,2.097-1.426,2.097-1.216L.031-40.358l1.384-.545M38.95-40.903l.965.671,2.097,1.719,2.097,1.929,1.09,1.09M1.415-40.903l.713-.294,2.097-.713,2.097-.629,2.097-.545,2.097-.503,2.097-.377,2.097-.336,2.097-.294,2.097-.252,2.097-.21,2.097-.126h2.097l2.097.168,2.097.336,2.097.419,2.097.629,2.097.881,2.097,1.174,1.132.755M-94.623,242.264l.294.294,2.097,1.258,2.097.377,2.097-.042,2.097-.336,2.097-.503,2.097-1.048.126-.126M-81.622,242.138l1.971-1.887,2.097-3.229.126-.294M-77.429,236.686l1.468-5.452M-75.919,231.276l.461-2.558.419-2.894M-75.038,225.824l.461-5.452M-74.577,220.372l.21-5.452M-74.409,214.92l.042-5.452M-74.367,209.468v-5.452M-74.367,204.058l.084-5.452M-74.283,198.606l.168-5.452M-74.115,193.154l.252-5.452M-73.822,187.702l.21-5.452M-73.654,182.25l.042-5.452M-73.612,176.84l-.168-5.452M-73.78,171.388l-.419-5.452M-74.157,165.936l-1.3-4.194-.336-1.258M-75.793,160.484l-1.761-4.823-.168-.629M-77.722,155.032l-.21-5.452M-77.932,149.622l.377-1.09,1.929-4.362M-75.625,144.17l.168-.252,2.097-2.852,1.719-2.307M-71.641,138.718l.377-.587,2.097-3.9.377-.965M-68.789,133.266l1.719-5.2.042-.252M-66.986,127.814l1.258-5.452M-65.728,122.404l.755-4.865.084-.587M-64.889,116.952l.923-5.452M-63.966,111.5l.587-5.452M-63.379,106.048l.168-5.452M-63.17,100.596v-5.452M-63.17,95.186l.126-5.452M-63.044,89.734l.168-2.181.294-3.229M-62.582,84.282l.839-5.452M-61.786,78.83l1.007-4.781.168-.671M-60.611,73.378l1.552-5.452M-59.06,67.968l.377-1.3,1.384-4.152M-57.298,62.516l.713-2.097,1.3-3.355M-55.243,57.064l.797-2.181,1.216-3.271M-53.23,51.612l.881-2.726.881-2.726M-51.511,46.16l1.216-4.571.21-.881M-50.043,40.75l1.216-5.452M-48.827,35.298l.629-2.81.587-2.642M-47.569,29.846l1.258-5.452M168.371,24.395l1.594.503,2.097.419,2.097.126,2.097-.168,2.097-.419,1.468-.461M-46.31,24.395l.21-.965,1.09-4.487M158.306,18.985l1.174.965,2.097,1.426,2.097,1.174,2.097.923,2.097.797.503.168M179.82,24.395l.629-.168,2.097-.839,2.097-.965,2.097-1.09,2.097-1.258,1.594-1.09M-44.968,18.985l1.007-3.732.461-1.719M153.064,13.533l.126.168,2.097,2.432,2.097,2.097.923.797M190.431,18.985l.503-.377,2.097-1.887,2.097-2.349.587-.797M-43.501,13.533l1.51-5.452M149.206,8.081l1.887,2.81,1.971,2.642M195.757,13.533l1.51-2.097,2.013-3.355M-41.991,8.081l.084-.336,1.342-5.075M146.06,2.629l.839,1.51,2.097,3.607.21.336M199.238,8.081l.084-.126,2.097-3.732.797-1.594M-40.523,2.629l.755-2.726.713-2.684M143.334-2.823l1.468,2.978,1.258,2.474M202.215,2.629l1.3-2.39,1.594-3.061M-39.055-2.823l1.384-4.404.336-1.048M140.65-8.233l2.013,4.11.629,1.3M205.109-2.823l.503-.923,2.097-3.9.336-.629M-37.378-8.233l1.761-4.529.377-.923M137.673-13.685l.839,1.426,2.097,3.858.084.126M208.045-8.233l1.761-3.187,1.216-2.223M-35.239-13.685l1.719-3.607.923-1.845M133.856-19.137l.461.587,2.097,2.894,1.258,1.971M211.023-13.685l.881-1.636,2.013-3.816M-32.555-19.137l1.174-2.055,1.971-3.397M118.842-24.589l.797.126,2.097.084,2.097-.126,2.097-.084,2.097.545,2.097,1.174,2.097,1.887,1.636,1.803M213.958-19.137l.084-.126,2.097-4.026.629-1.258M-29.409-24.589l.126-.21,2.097-3.355,1.174-1.887M106.68-30.041l.336.252,2.097,1.384,2.097,1.216,2.097,1.007,2.097.797,2.097.587,1.3.21M216.768-24.589l1.468-2.768,1.384-2.642M-26.012-30.041l.923-1.3,2.097-2.978.839-1.174M99.089-35.451l1.678,1.174,2.097,1.468,2.097,1.552,1.761,1.258M219.578-30.041l.713-1.384,2.097-3.984.042-.084M-22.196-35.451l1.258-1.636,2.097-2.642.965-1.174M90.786-40.903l1.552.965,2.097,1.342,2.097,1.384,2.097,1.468.419.294M222.43-35.451l2.055-3.942.755-1.51M-17.834-40.903l1.132-1.342,2.097-2.307,1.761-1.803M82.901-46.355l1.09.839,2.097,1.552,2.097,1.426,2.097,1.342.545.336M225.282-40.903l1.342-2.6,1.426-2.852M-12.844-46.355l.336-.336,2.097-1.971,2.097-1.761,1.803-1.384M74.933-51.807l.671.336,2.097,1.3,2.097,1.426,2.097,1.552,1.007.797M228.049-46.355l.671-1.384,1.971-4.068M-6.511-51.807l.294-.21,2.097-1.426,2.097-1.258,2.097-1.09,2.097-1.048.839-.419M54.132-57.259l.503.21,2.097.629,2.097.419,2.097.336,2.097.252,2.097.294,2.097.336,2.097.545,2.097.713,2.097.965,1.426.797M230.692-51.807l.126-.252.629-1.342M3.009-57.259l1.258-.671,2.097-1.132,2.097-1.09,2.097-1.132,2.097-1.09.629-.336M43.689-62.669l.419.21,2.097,1.132,2.097,1.174,2.097,1.174,2.097,1.09,1.594.671M13.242-62.669l1.468-.839,2.097-1.132,2.097-1.048,2.097-.839,2.097-.629,2.097-.377,2.097-.168,2.097.084,2.097.252,2.097.461,2.097.629,2.097.797,2.097.923,2.097,1.048,1.678.923M-94.623,164.846l.294-.168,2.097-1.929,1.258-2.265M-90.975,160.484l.839-4.152.126-1.258M-90.01,155.032l.503-5.452M-89.507,149.622l1.384-5.452M-88.123,144.17l.042-.168,2.097-5.033.126-.252M-85.858,138.718l1.971-4.487.461-.965M-83.384,133.266l1.636-3.313,1.216-2.097M-80.532,127.814l.881-1.552,2.097-3.397.294-.545M-77.261,122.404l1.803-2.936,1.3-2.516M-74.157,116.952l.797-1.216,2.097-3.9.126-.336M-71.138,111.5l1.887-5.452M-69.251,106.048l.084-.461.629-4.991M-68.538,100.596l.084-5.452M-68.454,95.186v-5.452M-68.454,89.734l.21-5.452M-68.244,84.282l.461-5.452M-67.783,78.83l.713-5.158.042-.294M-67.028,73.378l1.09-5.452M-65.937,67.968l.965-4.11.336-1.342M-64.637,62.516l1.51-5.452M-63.128,57.064l.294-.965,1.3-4.445M-61.576,51.612l.797-2.726.797-2.726M-59.982,46.16l1.3-4.655.21-.797M-58.472,40.75l1.342-5.452M-57.13,35.298l.545-2.516.629-2.936M-55.914,29.846l1.132-5.452M-54.782,24.395l.294-1.468.839-3.984M-53.65,18.985l1.258-5.368v-.084M-52.349,13.533l1.468-5.452M-50.924,8.081l.629-2.265.881-3.187M-49.414,2.629l1.216-4.529.252-.923M-47.946-2.823l1.594-5.452M-46.352-8.233l.252-.797,1.552-4.613M-44.507-13.685l.545-1.468,1.51-3.984M-42.452-19.137l.587-1.342,1.803-4.068M-40.062-24.589l.294-.587,2.097-4.11.377-.713M168.078-30.041l1.887,1.552,2.097,1.258,2.097.839,2.097.419,2.097.168,2.097-.126,2.097-.377,2.097-.671,2.097-.965,2.097-1.258,1.09-.839M-37.294-30.041l1.719-3.02,1.426-2.432M163.674-35.451h0l2.097,2.894,2.097,2.349.21.168M189.928-30.041l1.007-.839,2.097-2.013,2.097-2.265.294-.336M-34.19-35.451l.671-1.09,2.097-3.187.839-1.174M160.571-40.903l.965,1.929,2.097,3.523M195.421-35.451l1.803-2.307,2.097-2.852.21-.294M-30.584-40.903l1.258-1.803,2.097-2.81.629-.839M157.971-46.355l1.51,3.271,1.132,2.181M199.531-40.903l1.887-2.894,1.552-2.516M-26.557-46.355l1.468-1.929,2.097-2.642.713-.881M155.538-51.807l1.845,4.152.587,1.258M203.012-46.355l.545-.923,2.097-3.858.336-.671M-22.322-51.807l1.384-1.761,2.097-2.516,1.007-1.132M153.064-57.259l.126.252,2.097,4.613.252.587M205.99-51.807l1.761-3.733.797-1.719M-17.792-57.259l1.09-1.258,2.097-2.223,2.013-1.929M150.38-62.669l.671,1.384,1.971,4.068M208.506-57.259l1.3-3.481.713-1.971M-12.592-62.669l.084-.084,2.097-2.013,2.097-1.887,1.678-1.426M147.738-68.121l1.258,2.558,1.426,2.894M210.561-62.669l1.384-4.823.168-.629M-6.679-68.121l.419-.419,2.097-1.845,2.097-1.803,1.719-1.426M144.76-73.573l.042.042,2.097,3.774.839,1.594M212.071-68.121l1.048-5.452M-94.623,129.911l.294-.545.713-1.552M-93.617,127.814l1.384-3.103.965-2.349M-91.268,122.404l1.132-2.39,1.594-3.061M-88.542,116.952l.503-.671,2.097-2.6,1.971-2.139M-83.971,111.5l.126-.126,2.097-1.803,2.097-1.887,1.636-1.636M-78.016,106.048l.461-.671,2.097-4.278.168-.503M-75.29,100.596l.503-5.452M-74.786,95.186l-.084-5.452M-74.87,89.734v-5.452M-74.87,84.282l.168-5.452M-74.703,78.83l.377-5.452" fill="none" stroke="#000" stroke-linejoin="round" stroke-width=".5"/>
            <path d="M-74.325,73.378l.671-5.452M-73.654,67.968l.294-1.929.503-3.523M-72.857,62.516l1.007-5.452M-71.851,57.064l.587-2.726.629-2.726M-70.635,51.612l1.468-5.452M-69.167,46.16l.042-.084,1.594-5.368M-67.573,40.75l.503-1.761,1.048-3.691M-66.021,35.298l1.048-4.278.252-1.174M-64.721,29.846l1.132-5.452M-63.547,24.395l.671-3.271.419-2.181M-62.457,18.985l1.174-5.452M-61.282,13.533l.503-2.055.839-3.397M-59.94,8.081l1.258-4.571.252-.881M-58.431,2.629l1.51-5.452M-56.921-2.823l.377-1.258,1.132-4.152M-55.411-8.233l.965-3.061.713-2.39M-53.733-13.685l1.384-3.984.503-1.426M-51.888-19.137l1.594-4.32.419-1.09M-49.875-24.589l1.678-4.026.587-1.426M-47.569-30.041l1.51-3.355.965-2.097M-45.136-35.451l1.132-2.307,1.636-3.145M-42.368-40.903l.461-.839,2.097-3.523.671-1.09M-39.097-46.355l1.426-2.181,2.097-3.061.168-.21M-35.448-51.807l1.929-2.852,1.845-2.6M-31.674-57.259l.252-.419,2.097-3.145,1.3-1.887M-27.983-62.669l.797-1.216,2.097-3.103.797-1.09M-24.335-68.121l1.3-1.845,2.097-2.642.839-.965M-94.623,103.071l.294-.252,2.097-1.51.965-.671M-91.268,100.596l1.132-1.216,2.097-2.642,1.007-1.594M-87.032,95.186l.881-5.452M-86.152,89.734l.21-3.313.126-2.139M-85.816,84.282l.336-5.452M-85.481,78.83l.377-5.452M-85.145,73.378l.419-5.452M-84.726,67.968l.419-5.452M-84.264,62.516l.419-4.571.084-.881M-83.761,57.064l.587-5.452M-83.174,51.612l.755-5.452M-82.377,46.16l.629-3.816.294-1.636M-81.455,40.75l1.007-5.452M-80.448,35.298l.797-4.32.21-1.132M-79.442,29.846l1.007-5.452M-78.435,24.395l.881-4.571.168-.881M-77.387,18.985l1.132-5.452M-76.254,13.533l.797-3.313.503-2.139M-74.954,8.081l1.468-5.452M-73.444,2.629l.084-.336,1.594-5.116M-71.767-2.823l.503-1.342,1.426-4.11M-69.838-8.233l.671-1.678,1.384-3.774M-67.783-13.685l.713-1.803,1.342-3.649M-65.728-19.137l.755-1.845,1.426-3.607M-63.547-24.589l.671-1.51,1.803-3.942M-61.073-30.041l.294-.629,2.097-4.362.21-.419M-58.472-35.451l1.887-3.9.713-1.51M-55.83-40.903l1.384-2.642,1.468-2.768M-53.02-46.355l.629-1.132,2.097-3.691.336-.587M-49.959-51.807l1.761-3.061,1.468-2.39M-46.73-57.259l.629-1.132,2.097-3.565.461-.755M-43.501-62.669l1.636-2.852,1.594-2.6M-40.313-68.121l.545-.965,2.097-3.9.294-.545" fill="none" stroke="#000" stroke-linejoin="round" stroke-width=".5"/>
          </g>
        </g>
      </g>
      <polygon points="223.972 308.53 291.282 192.613 305.877 167.45 291.282 142.287 223.972 26.37 216.884 14.166 38.856 14.166 31.769 26.37 -36.381 143.755 -50.137 167.492 -36.381 191.271 31.769 308.614 38.856 320.86 216.884 320.86 223.972 308.53" fill="#fff" isolation="isolate" opacity=".06"/>
    </g>
  </g>
</svg>